<svg width="329" height="321" viewBox="0 0 329 321" fill="none" xmlns="http://www.w3.org/2000/svg">
<g clip-path="url(#clip0)">
<path d="M90 63.8598C90 60.7218 92.2072 56.9561 94.8874 55.387L190.113 0.627617C192.793 -0.941421 195 0.313809 195 3.45188V161.14C195 164.278 192.793 168.044 190.113 169.613L94.8874 224.215C92.2072 225.785 90 224.529 90 221.391V63.8598Z" fill="url(#paint0_linear)"/>
<path d="M98.5135 57.4268C95.8333 58.9958 93.6261 62.7615 93.6261 65.8996V223.588C93.6261 224.059 93.6261 224.372 93.7838 224.843C94.0991 224.686 94.5721 224.529 95.045 224.372L190.27 169.613C192.95 168.044 195.158 164.278 195.158 161.14V3.45188C195.158 2.98117 195.158 2.66736 195 2.19665C194.685 2.35356 194.212 2.51046 193.739 2.66736L98.5135 57.4268Z" fill="#F9F7F9"/>
<path d="M103.243 67.3117L187.117 18.9854V159.257L103.243 207.427V67.3117Z" fill="white"/>
<path d="M173.243 6.90377L166.149 10.9833V3.45189C166.149 2.35356 165.36 1.88285 164.414 2.51046L152.905 9.10042C152.432 3.45189 148.176 1.25523 142.973 4.23641C137.77 7.21758 133.356 14.4352 133.041 20.5544L122.793 26.3598C121.847 26.9875 121.059 28.2427 121.059 29.341V36.7155L115.225 40.1674C113.806 40.9519 112.703 42.8347 112.703 44.4038V63.2322L114.122 64.1736L175.766 28.8703V8.3159C175.766 6.74687 174.662 6.11925 173.243 6.90377ZM144.234 15.2197C142.973 16.0042 141.869 15.3766 141.869 13.8075C141.869 12.2385 142.973 10.3557 144.234 9.57113C145.653 8.94352 146.757 9.57113 146.757 11.1402C146.757 12.5523 145.653 14.5921 144.234 15.2197Z" fill="url(#paint1_linear)"/>
<path d="M166.149 14.1213L175.766 8.62971V8.3159C175.766 6.74686 174.662 6.11925 173.243 6.90377L166.149 10.9833V14.1213Z" fill="url(#paint2_linear)"/>
<path d="M115.383 46.1297C115.383 44.5607 116.486 42.6778 117.905 41.8933L123.581 38.5983V31.2239C123.581 30.1255 124.369 28.7134 125.315 28.2427L135.563 22.4372C135.878 16.318 140.293 9.10042 145.495 6.11925C147.545 4.86402 149.595 4.55021 151.171 4.86402C149.437 2.82427 146.284 2.51046 142.815 4.39331C137.613 7.37448 133.198 14.5921 132.883 20.7113L122.635 26.5167C121.689 27.1444 120.901 28.3996 120.901 29.4979V36.8724L115.225 40.1674C113.806 40.9519 112.703 42.8347 112.703 44.4038V63.2322L114.122 64.1736L115.383 63.3891V46.1297Z" fill="url(#paint3_linear)"/>
<path d="M152.748 12.2385L166.149 4.70712V3.45189C166.149 2.35356 165.36 1.88285 164.414 2.51046L152.905 9.10042C152.905 10.0418 152.905 10.8264 152.748 12.2385Z" fill="url(#paint4_linear)"/>
<path d="M144.234 15.2197C145.653 14.5921 146.757 12.5523 146.757 11.1402C146.757 9.88494 146.126 9.25732 145.18 9.41423C145.338 9.72804 145.338 10.0418 145.338 10.3557C145.338 11.9247 144.234 13.8075 142.973 14.5921C142.658 14.749 142.342 14.9059 142.185 14.9059C142.342 15.6904 143.288 15.8473 144.234 15.2197Z" fill="#99A7D8"/>
<path d="M110.811 165.534L183.649 123.954V127.72L110.811 169.456V165.534Z" fill="#F6F8FB"/>
<path d="M110.811 174.006L183.649 132.27V136.192L110.811 177.929V174.006Z" fill="#F6F8FB"/>
<path d="M110.811 182.479L183.649 140.743V144.665L110.811 186.402V182.479Z" fill="#F6F8FB"/>
<path d="M110.811 190.952L138.874 174.791V178.713L110.811 194.874V190.952Z" fill="#F6F8FB"/>
<path d="M110.811 148.902L150.856 125.837V132.584L110.811 155.492V148.902Z" fill="#EDF0F8"/>
<path d="M126.734 67.6255L166.779 44.5607V51.3075L126.734 74.3724V67.6255Z" fill="#EDF0F8"/>
<path d="M110.811 118.933L117.748 115.01V132.898L110.811 136.82V118.933ZM121.374 130.701L128.311 126.778V98.2218L121.374 102.144V130.701ZM131.937 124.582L138.874 120.659V85.0419L131.937 88.9645V124.582ZM142.5 118.305L149.437 114.383V92.2594L142.5 96.182V118.305ZM153.063 112.186L160 108.264V93.9854L153.063 97.908V112.186ZM163.626 106.067L170.563 102.144V74.3724L163.626 78.295V106.067ZM174.189 99.9477L181.126 96.0251V62.6046L174.189 66.5272V99.9477Z" fill="url(#paint5_linear)"/>
</g>
<path d="M96 141.986C96 141.031 95.2871 140.793 94.5743 141.27L1.42574 195.2C0.712871 195.677 0 196.631 0 197.586V262.492C0 263.447 0.712871 263.686 1.42574 263.208L94.5743 209.04C95.2871 208.563 96 207.608 96 206.654V141.986Z" fill="url(#paint6_linear)"/>
<path d="M3.80198 196.87C3.08911 197.347 2.37624 198.302 2.37624 199.256V262.731L94.5743 209.279C95.2871 208.801 96 207.847 96 206.892V143.179L3.80198 196.87Z" fill="#FAFBFD"/>
<path d="M6.17822 211.903L94.099 160.837V165.132L6.17822 216.199V211.903Z" fill="url(#paint7_linear)"/>
<path d="M6.17822 222.403L94.099 171.098V175.393L6.17822 226.698V222.403Z" fill="url(#paint8_linear)"/>
<path d="M6.17822 232.664L94.099 181.359V185.654L6.17822 236.959V232.664Z" fill="url(#paint9_linear)"/>
<path d="M6.17822 242.925L71.2871 204.983V209.279L6.17822 247.22V242.925Z" fill="url(#paint10_linear)"/>
<path d="M96 63.9545C96 63 95.2871 62.7614 94.5743 63.2386L1.42574 117.168C0.712871 117.646 0 118.6 0 119.555V184.461C0 185.416 0.712871 185.654 1.42574 185.177L94.5743 131.009C95.2871 130.532 96 129.577 96 128.623V63.9545Z" fill="url(#paint11_linear)"/>
<path d="M3.80198 118.839C3.08911 119.316 2.37624 120.271 2.37624 121.225V184.7L94.5743 131.247C95.2871 130.77 96 129.816 96 128.861V65.3863L3.80198 118.839Z" fill="#FAFBFD"/>
<path d="M6.17822 176.825V163.462L16.396 148.667L21.8614 152.724L32.7921 130.77L36.8317 137.929H42.7723L52.0396 123.85L57.505 120.509H68.9109L76.2772 109.771L84.3564 113.589L93.1485 113.112V126.952L6.17822 176.825Z" fill="url(#paint12_linear)"/>
<path d="M307.132 286.624V290.978C307.132 292.222 306.502 293.467 305.557 294.089L291.695 302.487C290.12 303.42 288.545 303.42 286.969 302.487L282.874 299.998C281.929 299.376 281.614 298.754 281.614 297.821V295.333C281.614 295.333 282.244 295.644 283.189 295.022L292.325 289.423V286.624H307.132Z" fill="#363650"/>
<path d="M307.132 284.135V288.49C307.132 289.734 306.502 290.978 305.557 291.6L291.695 299.998C290.12 300.931 288.545 300.931 286.97 299.998L282.874 297.51C280.984 296.266 280.984 293.467 282.874 292.533L292.01 286.935V284.135H307.132Z" fill="#48486A"/>
<path d="M297.996 292.845V291.911L292.64 288.801V289.734L297.996 292.845Z" fill="white"/>
<path d="M295.791 294.4V293.467L290.435 290.667V291.289L295.791 294.4Z" fill="white"/>
<path d="M293.27 296.266V295.333L287.915 292.534V293.156L293.27 296.266Z" fill="white"/>
<path d="M304.927 287.246C307.762 285.691 307.762 282.891 304.927 281.025C302.091 279.47 297.051 279.47 294.215 281.025C291.38 282.58 291.38 285.38 294.215 287.246C297.051 288.801 302.091 288.801 304.927 287.246Z" fill="#48486A"/>
<path d="M303.037 286.002C304.927 284.758 304.927 283.202 303.037 281.958C301.146 280.714 297.996 280.714 296.106 281.958C294.215 283.202 294.215 284.758 296.106 286.002C297.996 287.246 301.146 287.246 303.037 286.002Z" fill="#363650"/>
<path d="M323.829 295.022V299.376C323.829 300.62 323.199 301.865 322.254 302.487L308.392 310.885C306.817 311.818 305.242 311.818 303.667 310.885L299.571 308.396C298.626 307.774 298.311 307.152 298.311 306.219V303.731C298.311 303.731 298.941 304.042 299.886 303.42L309.022 297.821V295.022H323.829Z" fill="#363650"/>
<path d="M323.829 292.534V296.888C323.829 298.132 323.199 299.376 322.254 299.998L308.392 308.396C306.817 309.33 305.242 309.33 303.667 308.396L299.571 305.908C297.681 304.664 297.681 301.865 299.571 300.932L308.707 295.333V292.534H323.829Z" fill="#48486A"/>
<path d="M314.378 300.932V299.998L309.022 297.199V297.821L314.378 300.932Z" fill="white"/>
<path d="M312.488 302.798V301.865L307.132 298.754V299.687L312.488 302.798Z" fill="white"/>
<path d="M309.967 304.664V303.731L304.612 300.62V301.554L309.967 304.664Z" fill="white"/>
<path d="M321.624 295.333C324.459 293.778 324.459 290.978 321.624 289.112C318.789 287.557 313.748 287.557 310.913 289.112C308.077 290.667 308.077 293.467 310.913 295.333C313.748 297.199 318.474 297.199 321.624 295.333Z" fill="#48486A"/>
<path d="M319.734 294.4C321.624 293.156 321.624 291.6 319.734 290.356C317.844 289.112 314.693 289.112 312.803 290.356C310.913 291.6 310.913 293.156 312.803 294.4C314.693 295.644 317.844 295.644 319.734 294.4Z" fill="#363650"/>
<path d="M299.571 286.002C297.051 286.002 294.846 286.624 294.53 283.824L292.01 243.701L294.53 200.467C294.53 197.667 297.051 195.801 299.886 195.801C302.722 196.112 310.913 198.289 310.913 201.089L303.352 243.701L304.612 283.202C304.927 286.002 302.722 285.691 299.886 286.002H299.571Z" fill="url(#paint13_linear)"/>
<path d="M315.953 293.778C313.118 293.778 310.913 294.089 310.913 291.289L303.667 203.577C303.667 200.778 313.118 203.266 315.953 203.266C318.789 203.266 320.994 205.443 320.994 208.243V291.289C320.679 294.089 318.474 293.778 315.953 293.778Z" fill="url(#paint14_linear)"/>
<path d="M260.191 189.269C258.616 189.269 257.356 188.336 257.041 187.092C256.411 185.226 257.356 183.36 259.246 182.738L286.339 173.095L296.736 158.477C297.996 156.921 299.886 156.61 301.461 157.544C303.037 158.788 303.352 160.654 302.407 162.209L290.75 178.383L261.451 188.958C261.136 189.269 260.821 189.269 260.191 189.269Z" fill="#F2B1B5"/>
<path d="M305.242 151.945L308.392 153.811C318.474 159.41 323.514 166.875 322.884 178.383C321.939 191.136 322.884 217.574 322.884 217.574C305.872 217.574 292.325 210.109 292.325 210.109C294.846 193.313 292.325 182.115 292.325 170.918C292.64 159.721 297.996 147.901 305.242 151.945Z" fill="#48486A"/>
<path d="M306.502 161.898H306.817C308.707 161.898 309.967 160.343 309.967 158.788V150.701H303.037V158.788C303.037 160.343 304.612 161.898 306.502 161.898Z" fill="#F2B1B5"/>
<path d="M309.967 153.811L311.858 155.055L309.022 171.229L305.242 161.587L309.967 153.811Z" fill="white"/>
<path d="M305.242 161.587L303.037 151.323H302.091L298.311 165.008L305.242 161.587Z" fill="white"/>
<path d="M307.762 152.256L311.858 151.323C313.748 151.012 315.008 149.146 314.693 147.279L311.228 129.861L292.01 133.594L293.9 142.925C294.846 149.457 301.146 153.5 307.762 152.256Z" fill="#F2B1B5"/>
<path d="M310.913 129.861L293.27 133.594L295.161 142.303C296.421 147.901 301.146 151.945 306.817 152.256C300.831 152.567 295.161 148.523 293.9 142.303L292.01 133.594L310.913 129.861Z" fill="#F5C5C8"/>
<path d="M288.86 218.196C287.915 218.196 286.97 217.885 286.339 217.263C285.079 216.018 285.079 213.841 286.339 212.286L302.407 196.423L314.063 169.674C314.693 167.808 316.898 167.186 318.789 167.808C320.679 168.43 321.309 170.607 320.679 172.473L308.392 200.156L291.695 216.952C290.435 217.885 289.49 218.196 288.86 218.196Z" fill="#F2B1B5"/>
<path d="M292.64 175.584C291.695 175.584 290.75 175.273 290.12 174.962C287.915 173.717 287.285 170.607 288.86 168.741L295.791 157.855C297.051 155.677 300.201 155.055 302.091 156.61C304.297 157.855 304.927 160.965 303.352 162.831L296.421 173.717C295.476 174.962 293.9 175.584 292.64 175.584Z" fill="#48486A"/>
<path d="M311.228 190.513C310.598 190.513 309.968 190.513 309.652 190.202C307.132 189.269 306.187 186.47 307.132 184.293L313.118 169.674C314.063 167.186 316.898 166.253 319.104 167.186C321.624 168.119 322.569 170.918 321.624 173.095L315.638 187.714C314.693 189.269 313.118 190.513 311.228 190.513Z" fill="#48486A"/>
<path d="M305.557 137.015C307.132 137.637 308.392 139.192 308.707 140.748C309.022 141.992 308.707 142.303 308.077 143.236C307.762 143.858 307.447 144.48 307.762 145.102C307.762 145.102 307.762 145.102 307.762 145.413C307.762 145.413 307.762 145.413 308.077 145.413C308.707 145.413 309.337 145.102 309.652 144.48C310.283 143.858 310.913 142.925 311.858 143.858C312.803 144.791 312.173 145.724 311.858 146.657C311.543 147.901 310.913 150.079 312.173 151.012C313.118 151.634 315.323 150.701 316.268 150.39L316.583 150.079C319.104 148.212 318.789 144.169 319.104 141.059C319.419 138.57 318.789 136.704 318.474 134.527C318.159 132.35 318.159 130.172 316.583 128.617C315.008 127.062 312.173 126.44 310.598 127.995C309.652 126.751 308.077 126.129 306.817 126.129C305.242 125.818 303.982 126.129 302.406 126.44C299.571 126.751 297.681 127.684 295.161 129.239C293.9 129.861 293.27 131.105 292.325 132.039C291.38 132.972 291.38 134.216 291.695 135.46C292.01 136.704 292.64 138.259 293.27 139.503C293.27 139.503 293.585 139.192 293.585 138.881C293.9 137.637 293.9 136.704 294.846 135.46C295.791 134.527 296.421 134.838 297.681 135.149C297.996 135.149 298.311 135.46 298.626 135.771C299.256 136.393 299.256 137.326 300.201 137.948C300.831 138.259 301.776 138.259 302.722 138.259C303.667 138.259 304.297 137.948 305.242 137.948C304.927 137.015 305.242 137.015 305.557 137.015Z" fill="#48486A"/>
<path d="M282.244 217.263C281.929 216.952 281.929 216.33 282.244 216.018L287.285 211.353C287.6 211.042 288.23 211.042 288.545 211.353C288.86 211.664 288.86 212.286 288.545 212.597L283.504 217.574C282.874 217.574 282.559 217.574 282.244 217.263Z" fill="#F2B1B5"/>
<path d="M284.449 211.353C284.449 210.731 284.764 210.42 285.079 210.42L292.01 209.176C292.325 209.176 292.955 209.487 292.955 209.798C292.955 210.109 292.64 210.731 292.325 210.731L285.394 211.975C284.764 211.975 284.449 211.664 284.449 211.353Z" fill="#F2B1B5"/>
<path d="M252 184.915C252 184.293 252.315 183.982 252.63 183.982L259.561 182.738C259.876 182.738 260.506 183.049 260.506 183.36C260.506 183.671 260.191 184.293 259.876 184.293L252.945 185.537C252.63 185.537 252.315 185.226 252 184.915Z" fill="#F2B1B5"/>
<path opacity="0.35" d="M158.053 129.232C158.053 127.366 159.313 126.433 161.203 127.366L287.535 199.527C289.11 200.46 290.685 202.948 290.685 204.814V288.483C290.685 290.349 289.425 291.282 287.535 290.349L161.203 218.189C159.628 217.256 158.053 214.767 158.053 212.901V129.232Z" fill="#D3DAED"/>
<path opacity="0.14" d="M269.577 251.47C269.577 251.781 269.262 251.781 268.947 252.092C268.632 252.403 268.317 252.403 268.002 252.403C267.687 252.403 267.057 252.403 266.742 252.092C265.482 251.159 264.222 249.604 264.222 248.048L239.963 225.343C239.648 225.343 239.648 225.343 239.333 225.343C239.018 225.343 238.388 225.343 238.073 225.032C236.813 224.099 235.553 222.543 235.553 220.988C235.553 220.366 235.868 219.744 236.183 219.122L223.581 198.905C223.266 198.905 222.951 199.216 222.636 199.216C222.321 199.216 221.691 199.216 221.376 198.905C220.431 198.282 219.801 197.349 219.171 196.416L192.707 196.105C192.707 196.727 192.392 197.349 191.762 197.66C191.447 197.971 191.132 197.971 190.817 197.971C190.502 197.971 189.872 197.971 189.557 197.66C188.297 196.727 187.037 195.172 187.037 193.617C187.037 193.306 187.037 192.995 187.037 192.684L175.065 174.333C174.75 174.644 174.435 174.644 174.12 174.644C173.805 174.644 173.175 174.644 172.86 174.333C171.915 173.711 170.97 172.466 170.654 171.222H158.683V213.212C158.683 215.078 159.943 217.567 161.833 218.5L288.165 290.66C289.74 291.594 291.315 290.971 291.315 288.794V257.068L269.577 251.47Z" fill="#FFC107"/>
<path d="M288.795 254.58L269.892 249.604C269.892 248.048 268.632 246.493 267.372 245.56C266.427 245.249 265.797 244.938 265.167 245.56L264.852 245.871L240.909 224.099C240.909 223.787 240.909 223.476 240.909 223.165C240.909 221.61 239.963 219.744 238.388 219.122C238.073 218.811 237.758 218.811 237.443 218.811L223.896 197.349C223.896 197.038 223.896 197.038 223.896 196.727C223.896 195.172 222.951 193.306 221.376 192.684C220.431 192.373 219.801 192.062 219.171 192.684C218.541 192.995 218.226 193.617 218.226 194.55L192.707 193.928C192.392 192.684 191.447 191.44 190.502 190.818C189.872 190.507 189.242 190.507 188.612 190.507L176.01 172.155C176.01 170.6 175.065 168.734 173.49 168.112C172.545 167.801 171.915 167.49 171.285 168.112C170.97 168.423 170.654 168.734 170.339 169.356H158.053V171.222H170.024C170.339 172.466 171.285 173.711 172.23 174.333C172.545 174.644 173.175 174.644 173.49 174.644C173.805 174.644 174.12 174.644 174.435 174.333L186.722 192.373C186.722 192.684 186.722 192.995 186.722 193.306C186.722 194.861 187.667 196.727 189.242 197.349C189.557 197.66 190.187 197.66 190.502 197.66C190.817 197.66 191.132 197.66 191.447 197.349C192.077 197.038 192.392 196.416 192.392 195.794L218.856 196.105C219.171 197.038 220.116 198.282 221.061 198.593C221.376 198.905 222.006 198.905 222.321 198.905C222.636 198.905 222.951 198.905 223.266 198.593L235.868 218.811C235.553 219.122 235.238 219.744 235.238 220.677C235.238 222.232 236.183 224.099 237.758 224.721C238.073 225.032 238.703 225.032 239.018 225.032C239.333 225.032 239.333 225.032 239.648 225.032L263.906 247.115C263.906 248.67 264.852 250.537 266.427 251.159C266.742 251.47 267.372 251.47 267.687 251.47C268.002 251.47 268.317 251.47 268.632 251.159C268.947 251.159 268.947 250.848 269.262 250.537L288.795 255.513V254.58ZM173.805 172.777C173.805 172.777 173.49 172.777 173.175 172.777C172.23 172.155 171.6 170.911 171.6 169.978C171.6 169.667 171.6 169.356 171.6 169.356H171.915C172.86 169.978 173.49 171.222 173.49 172.155C174.12 172.466 173.805 172.777 173.805 172.777ZM190.817 195.794C190.817 195.794 190.502 195.794 190.187 195.794C189.242 195.172 188.612 193.928 188.612 192.995C188.612 192.684 188.612 192.373 188.612 192.373H188.927C189.872 192.995 190.502 194.239 190.502 195.172C191.132 195.483 190.817 195.794 190.817 195.794ZM222.636 197.349C222.636 197.349 222.321 197.349 222.006 197.349C221.061 196.727 220.431 195.483 220.431 194.55C220.431 194.239 220.431 193.928 220.431 193.928H220.746C221.691 194.55 222.321 195.794 222.321 196.727C222.636 197.349 222.636 197.349 222.636 197.349ZM239.333 223.787C239.333 223.787 239.018 223.787 238.703 223.787C237.758 223.165 237.128 221.921 237.128 220.988C237.128 220.677 237.128 220.366 237.128 220.366H237.443C238.388 220.988 239.018 222.232 239.018 223.165C239.333 223.476 239.333 223.787 239.333 223.787ZM268.002 250.537C268.002 250.537 267.687 250.537 267.372 250.537C266.427 249.915 265.797 248.67 265.797 247.737C265.797 247.426 265.797 247.115 265.797 247.115H266.112C267.057 247.737 267.687 248.981 267.687 249.915C268.317 250.226 268.002 250.537 268.002 250.537Z" fill="#48486A"/>
<path d="M287.535 199.527L161.203 127.367C159.943 126.744 158.683 127.055 158.368 127.989C158.683 127.989 158.998 128.3 159.313 128.3L285.644 200.46C287.22 201.393 288.795 203.882 288.795 205.748V289.417C288.795 290.039 288.795 290.35 288.48 290.661C289.74 290.972 290.685 290.039 290.685 288.484V204.815C290.685 202.948 289.425 200.46 287.535 199.527Z" fill="#D3DAED"/>
<path opacity="0.35" d="M146.081 157.537C146.081 155.981 147.026 155.359 148.287 156.292L243.744 210.724C245.004 211.346 245.949 213.212 245.949 214.767V277.908C245.949 279.463 245.004 280.085 243.744 279.152L148.287 224.721C147.026 224.098 146.081 222.232 146.081 220.677V157.537Z" fill="#D3DAED"/>
<path opacity="0.35" d="M117 185.488C117 184.244 117.945 183.622 118.89 184.244L197.965 229.344C198.911 229.966 199.856 231.522 199.856 232.766V285.02C199.856 286.264 198.911 286.886 197.965 286.264L118.89 241.164C117.945 240.542 117 238.987 117 237.742V185.488Z" fill="#D3DAED"/>
<defs>
<linearGradient id="paint0_linear" x1="90" y1="112.463" x2="194.992" y2="112.463" gradientUnits="userSpaceOnUse">
<stop stop-color="#99A7D8"/>
<stop offset="1" stop-color="#D3DAED"/>
</linearGradient>
<linearGradient id="paint1_linear" x1="112.769" y1="33.2707" x2="175.765" y2="33.2707" gradientUnits="userSpaceOnUse">
<stop offset="0.289" stop-color="#EDF0F8"/>
<stop offset="1" stop-color="#D6DCEF"/>
</linearGradient>
<linearGradient id="paint2_linear" x1="166.176" y1="10.3396" x2="175.765" y2="10.3396" gradientUnits="userSpaceOnUse">
<stop stop-color="#99A7D8"/>
<stop offset="1" stop-color="#D3DAED"/>
</linearGradient>
<linearGradient id="paint3_linear" x1="112.769" y1="33.6096" x2="151.215" y2="33.6096" gradientUnits="userSpaceOnUse">
<stop stop-color="#99A7D8"/>
<stop offset="1" stop-color="#D3DAED"/>
</linearGradient>
<linearGradient id="paint4_linear" x1="152.703" y1="7.23029" x2="166.176" y2="7.23029" gradientUnits="userSpaceOnUse">
<stop stop-color="#99A7D8"/>
<stop offset="1" stop-color="#D3DAED"/>
</linearGradient>
<linearGradient id="paint5_linear" x1="110.853" y1="99.6841" x2="181.14" y2="99.6841" gradientUnits="userSpaceOnUse">
<stop offset="0.1499" stop-color="#FF9800"/>
<stop offset="1" stop-color="#FFC107"/>
</linearGradient>
<linearGradient id="paint6_linear" x1="0" y1="202.147" x2="96.0587" y2="202.147" gradientUnits="userSpaceOnUse">
<stop stop-color="#D3DAED"/>
<stop offset="1" stop-color="#99A7D8"/>
</linearGradient>
<linearGradient id="paint7_linear" x1="6.11977" y1="188.518" x2="94.0833" y2="188.518" gradientUnits="userSpaceOnUse">
<stop offset="0.1499" stop-color="#FF9800"/>
<stop offset="1" stop-color="#FFC107"/>
</linearGradient>
<linearGradient id="paint8_linear" x1="6.11977" y1="198.824" x2="94.0833" y2="198.824" gradientUnits="userSpaceOnUse">
<stop offset="0.1499" stop-color="#FF9800"/>
<stop offset="1" stop-color="#FFC107"/>
</linearGradient>
<linearGradient id="paint9_linear" x1="6.11977" y1="209.129" x2="94.0833" y2="209.129" gradientUnits="userSpaceOnUse">
<stop offset="0.1499" stop-color="#FF9800"/>
<stop offset="1" stop-color="#FFC107"/>
</linearGradient>
<linearGradient id="paint10_linear" x1="6.11977" y1="226.104" x2="71.2669" y2="226.104" gradientUnits="userSpaceOnUse">
<stop offset="0.1499" stop-color="#FF9800"/>
<stop offset="1" stop-color="#FFC107"/>
</linearGradient>
<linearGradient id="paint11_linear" x1="0" y1="124.265" x2="96.0587" y2="124.265" gradientUnits="userSpaceOnUse">
<stop stop-color="#D3DAED"/>
<stop offset="1" stop-color="#99A7D8"/>
</linearGradient>
<linearGradient id="paint12_linear" x1="6.11977" y1="143.395" x2="93.1485" y2="143.395" gradientUnits="userSpaceOnUse">
<stop offset="0.1499" stop-color="#FF9800"/>
<stop offset="1" stop-color="#FFC107"/>
</linearGradient>
<linearGradient id="paint13_linear" x1="291.97" y1="240.968" x2="310.719" y2="240.968" gradientUnits="userSpaceOnUse">
<stop offset="0.1499" stop-color="#FF9800"/>
<stop offset="1" stop-color="#FFC107"/>
</linearGradient>
<linearGradient id="paint14_linear" x1="303.681" y1="248.01" x2="320.821" y2="248.01" gradientUnits="userSpaceOnUse">
<stop offset="0.1499" stop-color="#FF9800"/>
<stop offset="1" stop-color="#FFC107"/>
</linearGradient>
<clipPath id="clip0">
<rect x="90" width="105" height="225" fill="white"/>
</clipPath>
</defs>
</svg>
