<svg width="22" height="22" viewBox="0 0 22 22" fill="none" xmlns="http://www.w3.org/2000/svg">
<path d="M18.9759 11.1115L18.4836 9.71274L13.1737 15.0228C12.6549 15.5426 11.9638 15.8284 11.2295 15.8284C10.4954 15.8284 9.80422 15.5426 9.28543 15.0228L5.38976 11.1271C4.86996 10.6083 4.58397 9.91716 4.58397 9.18304C4.58397 8.44875 4.86996 7.7576 5.38976 7.23881C5.90854 6.71918 6.5997 6.43319 7.33382 6.43319C8.06811 6.43319 8.75926 6.71918 9.27805 7.23881L11.2295 9.18942L16.458 3.96111L16.1058 2.96197L15.9437 1.99221C15.842 1.37071 15.4321 0.855613 14.8501 0.61443C14.2653 0.371569 13.6128 0.44676 13.1004 0.814324L10.5531 2.65852L7.97731 0.809625C7.46037 0.444914 6.80597 0.372408 6.22475 0.616276C5.64739 0.858298 5.24122 1.37255 5.13951 1.99036L4.64087 5.09485L1.51791 5.61364C0.897418 5.71552 0.382325 6.12521 0.140303 6.70727C-0.101718 7.29117 -0.0265272 7.94557 0.341037 8.45798L2.1844 11.0053L0.335498 13.5809C-0.0283733 14.0978 -0.101718 14.7532 0.14215 15.3334C0.38501 15.911 0.898257 16.317 1.51607 16.4189L4.62073 16.9183L5.13951 20.0403C5.24038 20.6599 5.64739 21.1742 6.22475 21.4162C6.80681 21.6599 7.46221 21.5876 7.98385 21.2182L10.5311 19.374L13.1004 21.2182C13.4147 21.4427 13.7805 21.5582 14.1517 21.5582C14.3872 21.5582 14.6237 21.5124 14.8501 21.4181C15.4332 21.176 15.842 20.6609 15.9437 20.0421L16.4432 16.9376L19.5651 16.4189C20.1848 16.317 20.6982 15.911 20.9411 15.3334C21.1849 14.7532 21.1124 14.0978 20.743 13.5745L18.9759 11.1115Z" fill="#FFC107"/>
<path d="M11.2295 13.9952C10.9949 13.9952 10.7602 13.9054 10.5815 13.7266L6.68582 9.83096C6.32749 9.47263 6.32749 8.89325 6.68582 8.53492C7.04432 8.17642 7.62353 8.17642 7.98203 8.53492L11.2295 11.7824L20.4351 2.57686C20.7936 2.21852 21.3728 2.21852 21.7313 2.57686C22.0896 2.93519 22.0896 3.51456 21.7313 3.8729L11.8775 13.7266C11.6988 13.9054 11.4641 13.9952 11.2295 13.9952Z" fill="#607D8B"/>
</svg>
