<svg width="79" height="41" viewBox="0 0 79 41" fill="none" xmlns="http://www.w3.org/2000/svg">
<path d="M64.5794 0.621216H14.4206C6.80261 0.621216 0.626984 6.73999 0.626984 14.2879V26.7121C0.626984 34.26 6.80261 40.3788 14.4206 40.3788H64.5794C72.1974 40.3788 78.373 34.26 78.373 26.7121V14.2879C78.373 6.73999 72.1974 0.621216 64.5794 0.621216Z" stroke="#FFC90A" stroke-width="2"/>
<path d="M27.6739 21.96V27H29.9539V21.96L34.5539 13.1H32.0339L28.8139 19.92L25.5939 13.1H23.0539L27.6739 21.96ZM38.6433 19.5V14.96H41.1633C42.9433 14.96 43.7433 15.8 43.7433 17.24C43.7433 18.64 42.9433 19.5 41.1633 19.5H38.6433ZM46.0833 17.24C46.0833 14.98 44.4633 13.1 41.1633 13.1H36.3633V27H38.6433V21.36H41.1633C44.7833 21.36 46.0833 19.22 46.0833 17.24ZM55.9378 13.08H48.2578V27H55.9378V25.14H50.5378V20.88H55.3378V19.02H50.5378V14.94H55.9378V13.08Z" fill="#303030"/>
</svg>
