<svg width="219" height="312" viewBox="0 0 219 312" fill="none" xmlns="http://www.w3.org/2000/svg">
<path d="M109.746 179.621C111.223 179.621 113.191 180.113 114.175 181.098L198.823 229.817C199.807 230.309 200.299 231.293 200.299 232.278C200.299 233.262 199.807 234.246 198.823 234.738L114.175 283.457C112.699 284.442 111.223 284.934 109.746 284.934C108.27 284.934 106.301 284.442 105.317 283.457L20.6697 234.246C19.6855 233.754 19.1933 232.77 19.1933 231.785C19.1933 230.801 19.6855 229.817 20.6697 229.325L105.317 180.606C106.301 180.113 107.778 179.621 109.746 179.621ZM109.746 178.145C107.778 178.145 105.809 178.637 104.333 179.621L19.6855 228.341C16.7327 229.817 16.7327 233.754 19.6855 235.722L104.333 284.442C105.809 285.426 107.778 285.918 109.746 285.918C111.715 285.918 113.683 285.426 115.16 284.442L199.807 235.722C202.76 234.246 202.76 230.309 199.807 228.341L115.16 179.621C113.191 178.637 111.223 178.145 109.746 178.145Z" fill="url(#paint0_linear)"/>
<path d="M109.746 169.779C111.715 169.779 113.683 170.272 115.16 171.256L215.555 229.325C216.539 229.817 217.031 230.802 217.031 232.278C217.031 233.262 216.539 234.246 215.555 235.231L115.16 292.808C113.683 293.792 111.715 294.284 109.746 294.284C107.778 294.284 105.809 293.792 104.333 292.808L3.44496 234.738C2.46069 234.246 1.96856 233.262 1.96856 231.786C1.96856 230.802 2.46069 229.817 3.44496 228.833L103.84 170.764C105.809 170.272 107.778 169.779 109.746 169.779ZM109.746 167.811C107.285 167.811 105.317 168.303 103.348 169.779L2.46069 227.357C-0.984252 229.325 -0.984252 234.246 2.46069 236.215L102.856 294.284C104.825 295.268 107.285 296.253 109.254 296.253C111.715 296.253 113.683 295.761 115.652 294.284L216.539 236.215C219.984 234.246 219.984 229.325 216.539 227.357L116.144 169.287C114.175 168.303 111.715 167.811 109.746 167.811Z" fill="url(#paint1_linear)"/>
<path d="M170.279 220.467L114.175 187.988C111.222 186.511 107.777 186.511 104.825 187.988L48.7213 220.467H31.4966V232.278C31.4966 233.262 31.9887 234.738 33.4651 235.231L104.825 276.568C107.777 278.044 111.222 278.044 114.175 276.568L185.535 235.231C186.519 234.738 187.503 233.262 187.503 232.278V220.467H170.279Z" fill="url(#paint2_linear)"/>
<path d="M185.535 223.42L114.175 264.757C111.222 266.234 107.777 266.234 104.825 264.757L33.4651 223.42C31.0044 221.944 31.0044 218.499 33.4651 217.022L104.825 175.685C107.777 174.209 111.222 174.209 114.175 175.685L185.535 217.022C187.995 218.499 187.995 221.944 185.535 223.42Z" fill="url(#paint3_linear)"/>
<path d="M109.746 179.13C111.222 179.13 112.207 179.622 113.191 180.114L180.121 218.499C180.613 218.991 181.106 219.483 181.106 220.467C181.106 221.451 180.613 221.944 180.121 222.436L113.191 260.821C112.207 261.313 110.73 261.805 109.746 261.805C108.27 261.805 107.285 261.313 106.301 260.821L38.8786 222.436C38.3864 221.944 37.8943 221.451 37.8943 220.467C37.8943 219.483 38.3864 218.991 38.8786 218.499L105.809 180.114C106.793 179.13 108.27 179.13 109.746 179.13ZM109.746 177.653C108.27 177.653 106.793 178.145 105.317 178.638L38.3864 217.515C35.9258 218.991 35.9258 221.944 38.3864 223.42L105.317 261.805C106.793 262.789 108.27 262.789 109.746 262.789C111.222 262.789 112.699 262.297 114.175 261.805L181.106 223.42C183.566 221.944 183.566 218.991 181.106 217.515L114.175 179.13C112.699 178.145 111.222 177.653 109.746 177.653Z" fill="white"/>
<path d="M170.279 190.448L114.175 157.968C111.222 156.492 107.777 156.492 104.825 157.968L48.7213 190.448H31.4966V202.259C31.4966 203.243 31.9887 204.719 33.4651 205.211L104.825 246.549C107.777 248.025 111.222 248.025 114.175 246.549L185.535 205.211C186.519 204.719 187.503 203.243 187.503 202.259V190.448H170.279Z" fill="url(#paint4_linear)"/>
<path d="M185.535 193.401L114.175 234.738C111.222 236.215 107.777 236.215 104.825 234.738L33.4651 193.401C31.0044 191.924 31.0044 188.479 33.4651 187.003L104.825 145.666C107.777 144.189 111.222 144.189 114.175 145.666L185.535 187.003C187.995 188.479 187.995 191.924 185.535 193.401Z" fill="url(#paint5_linear)"/>
<path d="M109.746 149.11C111.222 149.11 112.207 149.602 113.191 150.095L180.121 188.479C180.613 188.972 181.106 189.464 181.106 190.448C181.106 191.432 180.613 191.924 180.121 192.416L113.191 230.801C112.207 231.293 110.73 231.785 109.746 231.785C108.27 231.785 107.285 231.293 106.301 230.801L38.8786 192.416C38.3864 191.924 37.8943 191.432 37.8943 190.448C37.8943 189.464 38.3864 188.972 38.8786 188.479L105.809 150.095C106.793 149.11 108.27 149.11 109.746 149.11ZM109.746 147.634C108.27 147.634 106.793 148.126 105.317 148.618L38.3864 187.495C35.9258 188.972 35.9258 191.924 38.3864 193.401L105.317 231.785C106.793 232.77 108.27 232.77 109.746 232.77C111.222 232.77 112.699 232.278 114.175 231.785L181.106 193.401C183.566 191.924 183.566 188.972 181.106 187.495L114.175 149.11C112.699 148.126 111.222 147.634 109.746 147.634Z" fill="white"/>
<path d="M170.279 160.429L114.175 127.949C111.222 126.473 107.777 126.473 104.825 127.949L48.7213 160.429H31.4966V172.239C31.4966 173.223 31.9887 174.7 33.4651 175.192L104.825 216.529C107.777 218.006 111.222 218.006 114.175 216.529L185.535 175.192C186.519 174.7 187.503 173.223 187.503 172.239V160.429H170.279Z" fill="url(#paint6_linear)"/>
<path d="M185.535 163.381L114.175 204.719C111.222 206.195 107.777 206.195 104.825 204.719L33.4651 163.381C31.0044 161.905 31.0044 158.46 33.4651 156.984L104.825 115.646C107.777 114.17 111.222 114.17 114.175 115.646L185.535 157.476C187.995 158.46 187.995 161.905 185.535 163.381Z" fill="url(#paint7_linear)"/>
<path d="M109.746 119.091C111.222 119.091 112.207 119.583 113.191 120.075L180.121 158.46C180.613 158.952 181.106 159.444 181.106 160.429C181.106 161.413 180.613 161.905 180.121 162.397L113.191 200.782C112.207 201.274 110.73 201.766 109.746 201.766C108.27 201.766 107.285 201.274 106.301 200.782L38.8786 162.397C38.3864 161.905 37.8943 161.413 37.8943 160.429C37.8943 159.444 38.3864 158.952 38.8786 158.46L105.809 120.075C106.793 119.091 108.27 119.091 109.746 119.091ZM109.746 117.615C108.27 117.615 106.793 118.107 105.317 118.599L38.3864 157.476C35.9258 158.952 35.9258 161.905 38.3864 163.381L105.317 201.766C106.793 202.75 108.27 202.75 109.746 202.75C111.222 202.75 112.699 202.258 114.175 201.766L181.106 163.381C183.566 161.905 183.566 158.952 181.106 157.476L114.175 119.091C112.699 118.107 111.222 117.615 109.746 117.615Z" fill="white"/>
<path d="M31.4966 140.252V242.612C31.4966 243.596 31.9887 245.073 33.4651 245.565L104.825 286.902C107.777 288.379 111.222 288.379 114.175 286.902L185.535 245.565C186.519 245.073 187.503 243.596 187.503 242.612V140.252H31.4966Z" fill="url(#paint8_linear)"/>
<path d="M111.715 78.7379C111.715 80.7064 109.746 103.344 107.778 103.344C105.809 103.344 103.84 81.1985 103.84 78.7379C103.84 76.7695 105.809 74.801 107.778 74.801C109.746 74.801 111.715 76.2774 111.715 78.7379Z" fill="url(#paint9_linear)"/>
<path d="M67.4225 59.0534C67.4225 61.0218 65.4539 83.659 63.4854 83.659C61.5168 83.659 59.5483 61.5139 59.5483 59.0534C59.5483 57.0849 61.5168 55.1165 63.4854 55.1165C65.4539 55.1165 67.4225 57.0849 67.4225 59.0534Z" fill="url(#paint10_linear)"/>
<path d="M150.593 64.9593C150.593 66.9277 149.117 84.1517 147.64 84.1517C145.672 84.1517 144.688 66.4356 144.688 64.9593C144.688 62.9908 146.164 62.0066 147.64 62.0066C149.117 62.0066 150.593 62.9908 150.593 64.9593Z" fill="url(#paint11_linear)"/>
<path d="M114.667 41.3377C114.667 43.3061 113.191 60.5301 111.715 60.5301C109.746 60.5301 108.762 42.814 108.762 41.3377C108.762 39.3692 110.238 38.385 111.715 38.385C113.191 38.385 114.667 39.8613 114.667 41.3377Z" fill="url(#paint12_linear)"/>
<path d="M170.279 130.41L114.175 97.9307C111.222 96.4544 107.777 96.4544 104.825 97.9307L48.7213 130.41H31.4966V142.221C31.4966 143.205 31.9887 144.682 33.4651 145.174L104.825 187.003C107.777 188.48 111.222 188.48 114.175 187.003L185.535 145.666C186.519 145.174 187.503 143.697 187.503 142.713V130.902H170.279V130.41Z" fill="url(#paint13_linear)"/>
<path d="M185.535 133.363L114.175 174.701C111.222 176.177 107.777 176.177 104.825 174.701L33.4651 133.363C31.0044 131.887 31.0044 128.442 33.4651 126.966L104.825 85.628C107.777 84.1517 111.222 84.1517 114.175 85.628L185.535 126.966C187.995 128.934 187.995 131.887 185.535 133.363Z" fill="url(#paint14_linear)"/>
<path d="M109.746 89.0728C111.222 89.0728 112.207 89.5649 113.191 90.057L180.121 128.442C180.613 128.934 181.106 129.426 181.106 130.41C181.106 131.395 180.613 131.887 180.121 132.379L113.191 170.764C112.207 171.256 110.73 171.748 109.746 171.748C108.27 171.748 107.285 171.256 106.301 170.764L38.8786 132.379C38.3864 131.887 37.8943 131.395 37.8943 130.41C37.8943 129.426 38.3864 128.934 38.8786 128.442L105.809 90.057C106.793 89.5649 108.27 89.0728 109.746 89.0728ZM109.746 87.5964C108.27 87.5964 106.793 88.0886 105.317 88.5807L38.3864 127.458C35.9258 128.934 35.9258 131.887 38.3864 133.363L105.317 171.748C106.793 172.732 108.27 172.732 109.746 172.732C111.222 172.732 112.699 172.24 114.175 171.748L181.106 133.363C183.566 131.887 183.566 128.934 181.106 127.458L114.175 89.0728C112.699 88.0886 111.222 87.5964 109.746 87.5964Z" fill="white"/>
<path d="M171.755 132.871L113.191 166.827C110.73 168.303 107.777 168.303 105.809 166.827L47.2449 132.871C45.2763 131.886 45.2763 128.934 47.2449 127.95L105.809 93.9937C108.27 92.5174 111.222 92.5174 113.191 93.9937L171.755 127.95C173.724 128.934 173.724 131.886 171.755 132.871Z" fill="white"/>
<path d="M47.2449 132.871L48.2291 133.363L106.301 99.8991C108.762 98.4227 111.715 98.4227 113.683 99.8991L171.755 133.363L172.739 132.871C174.708 131.886 174.708 128.934 172.739 127.95L113.191 93.9937C110.73 92.5174 107.777 92.5174 105.809 93.9937L47.2449 127.95C45.2763 128.934 45.2763 131.886 47.2449 132.871Z" fill="#FEAE6F"/>
<path d="M109.746 63.9749C110.73 63.9749 112.207 64.4671 113.191 64.9592L171.755 98.915C172.247 99.4071 172.739 99.8992 172.739 100.883C172.739 101.376 172.247 102.36 171.755 102.852L113.191 136.808C112.207 137.3 111.222 137.792 109.746 137.792C108.762 137.792 107.285 137.3 106.301 136.808L47.737 102.36C47.2449 101.868 46.7527 101.376 46.7527 100.391C46.7527 99.8992 47.2449 98.915 47.737 98.4229L106.301 64.4671C107.285 63.975 108.27 63.9749 109.746 63.9749ZM109.746 62.9907C108.27 62.9907 107.285 63.4828 105.809 63.9749L47.2449 97.9308C45.2763 98.915 45.2763 101.868 47.2449 102.852L105.809 136.808C106.793 137.3 108.27 137.792 109.746 137.792C111.222 137.792 112.207 137.3 113.683 136.808L172.247 102.852C174.216 101.868 174.216 98.915 172.247 97.9308L113.191 63.9749C112.207 63.4828 110.73 62.9907 109.746 62.9907Z" fill="white"/>
<path d="M109.746 3.93735C110.73 3.93735 112.207 4.42947 113.191 4.92158L171.755 38.8774C172.247 39.3695 172.739 39.8616 172.739 40.8459C172.739 41.338 172.247 42.3222 171.755 42.8143L113.191 76.7702C112.207 77.2623 111.222 77.7544 109.746 77.7544C108.762 77.7544 107.285 77.2623 106.301 76.7702L47.737 42.3222C46.7527 41.8301 46.7527 41.338 46.7527 40.3538C46.7527 39.8616 47.2449 38.8774 47.737 38.3853L106.301 4.92158C107.285 4.42947 108.27 3.93735 109.746 3.93735ZM109.746 2.95312C108.27 2.95312 107.285 3.44524 105.809 3.93735L47.2449 37.8932C45.2763 38.8774 45.2763 41.8301 47.2449 42.8143L105.809 76.7702C106.793 77.2623 108.27 77.7544 109.746 77.7544C111.222 77.7544 112.207 77.2623 113.683 76.7702L172.247 42.8143C174.216 41.8301 174.216 38.8774 172.247 37.8932L113.191 3.93735C112.207 3.44524 110.73 2.95312 109.746 2.95312Z" fill="white"/>
<path d="M109.746 33.9557C110.73 33.9557 112.207 34.4478 113.191 34.9399L171.755 68.8957C172.247 69.3878 172.739 69.88 172.739 70.8642C172.739 71.3563 172.247 72.3405 171.755 72.8326L113.191 106.788C112.207 107.281 111.222 107.773 109.746 107.773C108.762 107.773 107.285 107.281 106.301 106.788L47.737 72.3405C47.2449 71.8484 46.7527 71.3563 46.7527 70.3721C46.7527 69.88 47.2449 68.8957 47.737 68.4036L106.301 34.4478C107.285 34.4478 108.27 33.9557 109.746 33.9557ZM109.746 32.9714C108.27 32.9714 107.285 33.4636 105.809 33.9557L47.2449 67.9115C45.2763 68.8957 45.2763 71.8484 47.2449 72.8326L105.809 106.788C106.793 107.281 108.27 107.773 109.746 107.773C111.222 107.773 112.207 107.281 113.683 106.788L172.247 72.8326C174.216 71.8484 174.216 68.8957 172.247 67.9115L113.191 33.9557C112.207 33.4636 110.73 32.9714 109.746 32.9714Z" fill="white"/>
<path d="M93.5055 57.085C93.5055 59.5456 91.537 61.514 89.0763 61.514C86.6156 61.514 84.6471 59.5456 84.6471 57.085C84.6471 54.6245 86.6156 52.656 89.0763 52.656C91.537 52.656 93.5055 54.6245 93.5055 57.085Z" fill="white"/>
<path d="M136.813 79.7225C136.813 82.183 134.845 84.1515 132.384 84.1515C129.924 84.1515 127.955 82.183 127.955 79.7225C127.955 77.2619 129.924 75.2935 132.384 75.2935C134.845 75.2935 136.813 77.2619 136.813 79.7225Z" fill="white"/>
<path d="M91.537 100.391C91.537 102.852 89.5685 104.82 87.1078 104.82C84.6471 104.82 82.6786 102.852 82.6786 100.391C82.6786 97.9306 84.6471 95.9622 87.1078 95.9622C89.5685 95.9622 91.537 97.9306 91.537 100.391Z" fill="white"/>
<path d="M122.542 120.076C122.542 122.536 120.573 124.505 118.112 124.505C115.652 124.505 113.683 122.536 113.683 120.076C113.683 117.615 115.652 115.647 118.112 115.647C120.573 115.647 122.542 117.615 122.542 120.076Z" fill="white"/>
<path d="M134.845 48.7196C137.291 48.7196 139.274 46.7367 139.274 44.2906C139.274 41.8445 137.291 39.8616 134.845 39.8616C132.399 39.8616 130.416 41.8445 130.416 44.2906C130.416 46.7367 132.399 48.7196 134.845 48.7196Z" fill="white"/>
<path d="M98.4269 27.0667C98.4269 29.5273 96.4583 31.4957 93.9977 31.4957C91.537 31.4957 89.5685 29.5273 89.5685 27.0667C89.5685 24.6061 91.537 22.6377 93.9977 22.6377C96.4583 22.6377 98.4269 24.6061 98.4269 27.0667Z" fill="white"/>
<path d="M45.7685 0V130.41C45.7685 131.394 46.2606 132.379 47.2449 132.871L105.809 166.826C108.27 168.303 111.222 168.303 113.191 166.826L171.755 132.871C172.739 132.379 173.231 131.394 173.231 130.41V0H45.7685Z" fill="url(#paint15_linear)"/>
<path d="M125.002 299.205C127.955 312 156.991 314.953 181.598 309.539C206.205 304.126 219.492 292.808 217.031 280.013C214.079 267.218 187.503 264.265 162.897 269.678C138.29 275.091 122.049 286.41 125.002 299.205Z" fill="url(#paint16_linear)"/>
<path d="M209.157 278.537V286.411C209.157 286.411 206.697 288.379 203.744 287.395C200.791 286.411 192.917 281.982 191.933 279.029C191.933 278.537 191.441 277.553 191.441 277.06C191.933 275.092 193.409 274.6 195.87 275.092C199.315 276.076 207.681 278.045 207.681 278.045L209.157 278.537Z" fill="#0075C7"/>
<path d="M191.933 277.552C192.917 280.504 200.791 284.933 203.744 286.41C206.205 287.394 208.173 286.41 209.157 285.426C209.157 285.426 209.157 285.426 209.157 285.918V286.41V286.902C208.665 287.886 206.205 289.362 203.744 288.378C200.791 287.394 192.425 282.473 191.933 279.52C191.933 279.028 191.933 278.044 191.933 277.552C191.933 277.06 191.933 277.552 191.933 277.552Z" fill="#020256"/>
<path d="M156.991 286.902C156.991 286.902 156.991 291.823 156.991 293.299C156.991 294.776 149.117 294.776 143.703 294.284C138.29 293.791 131.4 293.299 129.924 290.347C128.939 286.902 133.861 285.918 137.306 285.426C139.274 284.933 145.672 284.933 147.641 282.473C149.609 280.012 156.991 286.902 156.991 286.902Z" fill="#566FCB"/>
<path d="M156.991 285.426C156.991 285.426 156.991 291.331 156.991 292.808C156.991 294.284 149.117 294.284 143.703 293.792C138.29 293.3 131.4 292.808 129.924 289.855C128.939 286.41 133.861 285.426 137.306 284.934C139.274 284.442 145.672 284.442 147.641 281.981C149.609 280.013 156.991 285.426 156.991 285.426Z" fill="#0075C7"/>
<path d="M204.728 224.896C204.728 224.896 205.712 212.593 206.204 200.29L207.189 183.066H206.697C206.697 179.129 206.204 176.177 205.712 175.192C203.744 171.748 189.964 178.637 183.566 181.59L169.294 180.606C169.294 180.606 153.546 215.054 151.085 232.277C149.117 247.533 146.164 275.583 145.672 281.981C145.672 282.965 146.164 283.457 146.656 283.949L149.117 285.426C151.085 286.41 153.546 286.902 156.007 286.41H156.991C157.483 286.41 157.975 285.918 157.975 285.426L165.357 233.262C165.357 233.262 172.739 218.99 179.629 204.719L184.551 203.735C187.011 216.53 188.98 230.309 190.456 232.77C192.917 237.199 198.822 276.568 198.822 276.568C198.822 276.568 200.299 279.028 203.252 280.013C205.22 280.505 207.681 280.013 209.157 278.044V277.552L204.728 224.896Z" fill="url(#paint17_linear)"/>
<path d="M142.719 292.808C146.656 293.3 153.546 292.808 156.499 292.316V291.823C156.499 291.823 156.499 291.824 156.499 292.316V292.808V293.3C156.499 294.776 148.133 294.776 143.211 294.284C137.798 293.792 130.908 293.3 129.432 290.347C132.384 292.316 138.29 292.808 142.719 292.808Z" fill="#020256"/>
<path d="M162.897 66.4355C163.389 66.4355 164.865 66.4355 165.85 66.4355C168.802 66.4355 166.342 62.4986 165.357 60.5301C164.865 59.5459 165.357 58.0696 165.357 57.5775C165.85 57.0853 166.834 56.5932 167.326 56.5932C168.31 56.5932 168.802 56.1011 169.787 56.5932C171.263 57.0853 172.739 61.5144 173.232 62.0065C173.724 62.9907 176.677 67.4197 176.677 67.4197C182.582 73.3251 187.996 77.7541 194.885 88.5806C204.728 102.852 208.173 124.997 208.173 124.997L202.268 129.426L194.393 122.536C192.425 95.9623 176.184 75.7857 175.692 74.8014C172.247 71.3566 170.279 70.3724 169.294 69.8803C168.31 69.3882 165.85 67.9118 163.389 67.4197C162.405 66.9276 162.405 66.4355 162.897 66.4355Z" fill="#FFAA83"/>
<path d="M195.87 87.104C208.173 107.281 209.65 129.426 209.65 129.426H202.268L193.901 123.028C192.917 111.71 189.964 101.867 186.519 93.9936L195.87 87.104Z" fill="url(#paint18_linear)"/>
<path d="M188.488 96.4545L198.33 91.5334C199.315 91.0413 199.807 89.5649 199.315 88.5807L198.823 87.5965C198.33 86.6122 196.854 86.1201 195.87 86.6122L186.027 91.5334C185.043 92.0255 184.551 93.5018 185.043 94.4861L185.535 95.4703C186.519 96.4545 187.503 96.9466 188.488 96.4545Z" fill="url(#paint19_linear)"/>
<path d="M166.834 103.836C166.834 103.836 166.834 105.805 168.31 106.297C168.802 106.789 169.294 106.789 169.787 106.789C169.787 106.789 169.787 106.789 170.279 106.789C172.739 106.297 175.2 103.836 175.692 103.344L175.2 100.884L171.755 99.8994C170.771 99.8994 166.342 100.884 166.834 103.836ZM170.771 100.392L173.724 101.376L174.216 103.344C173.724 103.836 171.263 106.297 169.294 106.297C168.802 106.297 168.31 106.297 167.818 105.805C167.326 105.313 167.326 103.836 167.326 103.836C166.834 101.376 170.279 100.884 170.771 100.392Z" fill="#020256"/>
<path d="M191.933 122.536L192.425 122.044C192.917 120.076 193.901 113.186 193.901 112.694C195.87 108.757 201.775 96.9465 195.87 91.5332C189.472 85.1358 179.629 82.6752 174.708 90.549C173.724 92.0254 170.771 97.4386 170.279 101.376V101.868C170.771 103.344 170.279 105.312 170.279 106.789C169.787 108.265 171.263 112.694 172.247 115.647C172.247 116.139 172.739 116.139 172.739 116.631C175.2 118.599 176.676 118.107 177.661 117.615C178.153 117.615 180.121 128.934 180.121 129.918C179.629 130.902 185.535 129.426 187.503 128.934C187.996 128.934 187.996 128.442 188.488 128.442L191.933 122.536Z" fill="#FFAA83"/>
<path d="M173.724 117.123C175.2 117.123 177.169 117.123 177.169 116.139L177.661 117.615C176.676 117.615 175.692 118.108 173.724 117.123Z" fill="#EF8F6A"/>
<path d="M170.771 90.0572C167.818 86.1203 172.739 85.1361 173.231 82.6755C173.231 80.2149 184.058 78.7386 185.043 79.7228C186.027 80.215 185.043 81.1992 187.011 81.6913C188.98 82.1834 188.98 81.1992 190.948 81.1992C192.917 81.1992 193.409 81.6913 193.901 82.6755C194.393 83.6597 193.901 85.1361 195.87 85.1361C197.838 85.6282 198.33 83.6597 199.315 86.1203C200.791 88.5809 202.267 89.5651 203.252 89.073C204.236 88.5809 206.697 95.4705 206.697 96.9468C206.697 98.4232 205.22 100.884 203.744 102.36C202.76 104.329 202.267 105.313 201.775 105.313C200.791 105.805 198.33 111.218 196.362 111.71C194.393 112.202 194.885 115.647 192.917 115.647C190.948 116.631 187.011 116.631 184.551 115.647C183.074 115.155 184.551 103.836 179.137 104.821C177.661 104.821 178.153 108.265 178.153 108.265C176.676 108.265 175.692 107.281 175.692 107.281V103.836C175.692 102.36 175.2 101.376 174.708 100.392C173.231 99.4074 171.755 98.4232 171.263 97.4389C170.279 95.4705 170.279 93.9941 170.279 93.9941C170.279 93.9941 169.294 92.0257 170.771 90.0572Z" fill="#020256"/>
<path d="M166.834 102.36L175.2 104.82H175.692L178.153 105.313L177.661 105.805L175.2 105.313L166.834 103.344V102.36Z" fill="#020256"/>
<path d="M198.33 121.552C198.33 121.552 196.854 117.615 192.425 117.123C191.44 117.123 180.121 123.521 178.645 124.997C176.676 126.473 176.184 131.887 176.676 133.363C179.137 136.808 187.995 132.871 187.995 132.871C187.995 132.871 199.315 125.489 199.315 124.997C199.315 124.505 198.33 121.552 198.33 121.552Z" fill="url(#paint20_linear)"/>
<path d="M196.854 121.552C196.854 121.552 196.854 119.584 199.807 119.584C201.283 119.584 203.252 119.584 205.22 121.06C208.173 123.029 212.602 129.918 211.126 145.666C210.142 154.524 208.665 186.019 207.189 188.48C205.22 192.417 200.299 195.369 188.98 195.861C181.598 196.353 171.755 191.924 168.802 187.003C166.342 183.066 170.771 179.129 171.263 177.653C173.724 168.303 168.31 142.221 169.787 138.776C172.739 132.871 179.137 129.918 182.09 127.95C183.566 126.965 189.472 127.95 191.933 126.473C193.901 124.997 195.378 122.536 196.854 121.552Z" fill="url(#paint21_linear)"/>
<path d="M197.838 120.076C197.838 120.076 197.346 119.584 197.838 120.076C197.346 120.076 197.838 120.076 197.838 120.076Z" fill="#D14768"/>
<path d="M181.598 127.95C183.074 126.966 186.519 127.458 189.472 125.982C195.377 123.521 195.87 121.553 197.346 120.076C198.33 123.029 195.377 127.95 192.425 128.442H191.933C188.98 128.934 183.074 128.934 181.598 129.919L176.184 131.395L181.598 127.95Z" fill="#00579F"/>
<path d="M104.825 95.9621C105.317 95.47 105.317 95.47 105.809 94.9779C107.285 93.9937 108.762 94.4858 109.746 95.47L113.191 98.9148C113.191 93.5016 115.16 94.9779 115.16 96.4542C115.16 97.4385 115.16 97.9306 115.16 99.899C115.16 102.36 116.144 103.836 116.144 103.836C124.51 119.584 157.975 134.347 169.787 136.315C174.216 136.315 182.09 136.808 183.566 140.252C186.027 147.142 180.614 149.602 178.153 151.079C174.708 153.047 167.326 149.11 167.326 148.618C141.735 142.713 115.652 119.091 112.699 111.218C109.746 109.741 105.809 103.344 104.825 101.375C103.348 98.9148 103.348 96.9464 104.825 95.9621Z" fill="#FFAA83"/>
<path d="M170.771 134.347C175.2 134.347 183.566 134.839 185.535 138.284C190.456 145.665 182.582 150.094 180.121 151.571C176.676 153.539 167.326 150.094 167.326 149.602C154.038 146.649 143.703 140.252 135.337 134.347L144.196 125.981C153.054 130.41 163.881 132.87 170.771 134.347Z" fill="url(#paint22_linear)"/>
<path d="M136.321 134.347L144.196 126.473C145.18 125.489 145.18 124.504 144.196 123.52L143.703 123.028C142.719 122.044 141.735 122.044 140.751 123.028L132.876 130.41C131.892 131.394 131.892 132.378 132.876 133.362L133.369 133.854C134.353 134.839 135.829 134.839 136.321 134.347Z" fill="url(#paint23_linear)"/>
<path d="M132.876 130.409C132.876 130.901 132.876 131.886 133.861 132.87L134.353 133.362C134.845 133.854 135.829 134.346 136.814 133.854C135.829 134.838 134.353 134.838 133.369 133.854H132.876C132.384 132.87 132.384 131.393 132.876 130.409Z" fill="#00579F"/>
<path d="M172.739 134.347C169.294 135.332 165.849 138.776 165.849 138.776C167.326 135.332 170.771 134.347 170.771 134.347C171.263 134.347 172.247 134.347 172.739 134.347Z" fill="#00579F"/>
<defs>
<linearGradient id="paint0_linear" x1="17.5836" y1="231.841" x2="201.446" y2="231.841" gradientUnits="userSpaceOnUse">
<stop offset="0.1499" stop-color="#FF9800"/>
<stop offset="1" stop-color="#FFC107"/>
</linearGradient>
<linearGradient id="paint1_linear" x1="1.73443e-05" y1="231.841" x2="219.029" y2="231.841" gradientUnits="userSpaceOnUse">
<stop offset="0.1499" stop-color="#FF9800"/>
<stop offset="1" stop-color="#FFC107"/>
</linearGradient>
<linearGradient id="paint2_linear" x1="108.99" y1="218.471" x2="112.234" y2="267.961" gradientUnits="userSpaceOnUse">
<stop offset="0.1499" stop-color="#FF9800"/>
<stop offset="1" stop-color="#FFC107"/>
</linearGradient>
<linearGradient id="paint3_linear" x1="31.625" y1="220.417" x2="187.404" y2="220.417" gradientUnits="userSpaceOnUse">
<stop offset="0.1499" stop-color="#FF9800"/>
<stop offset="1" stop-color="#FFC107"/>
</linearGradient>
<linearGradient id="paint4_linear" x1="108.99" y1="188.469" x2="112.234" y2="237.959" gradientUnits="userSpaceOnUse">
<stop offset="0.1499" stop-color="#FF9800"/>
<stop offset="1" stop-color="#FFC107"/>
</linearGradient>
<linearGradient id="paint5_linear" x1="31.625" y1="190.415" x2="187.404" y2="190.415" gradientUnits="userSpaceOnUse">
<stop offset="0.1499" stop-color="#FF9800"/>
<stop offset="1" stop-color="#FFC107"/>
</linearGradient>
<linearGradient id="paint6_linear" x1="108.99" y1="158.467" x2="112.234" y2="207.957" gradientUnits="userSpaceOnUse">
<stop offset="0.1499" stop-color="#FF9800"/>
<stop offset="1" stop-color="#FFC107"/>
</linearGradient>
<linearGradient id="paint7_linear" x1="31.625" y1="160.413" x2="187.404" y2="160.413" gradientUnits="userSpaceOnUse">
<stop offset="0.1499" stop-color="#FF9800"/>
<stop offset="1" stop-color="#FFC107"/>
</linearGradient>
<linearGradient id="paint8_linear" x1="109.754" y1="176.098" x2="107.764" y2="304.496" gradientUnits="userSpaceOnUse">
<stop stop-color="#FFC107" stop-opacity="0.7"/>
<stop offset="0.9196" stop-color="#FFF568" stop-opacity="0"/>
</linearGradient>
<linearGradient id="paint9_linear" x1="107.537" y1="73.9767" x2="107.561" y2="104.698" gradientUnits="userSpaceOnUse">
<stop stop-color="#FE5D6F"/>
<stop offset="0.1501" stop-color="#FE8492"/>
<stop offset="0.3432" stop-color="#FFB0B9"/>
<stop offset="0.53" stop-color="#FFD2D7"/>
<stop offset="0.7062" stop-color="#FFEBED"/>
<stop offset="0.8674" stop-color="#FFFAFA"/>
<stop offset="1" stop-color="white"/>
</linearGradient>
<linearGradient id="paint10_linear" x1="63.4883" y1="54.6022" x2="63.5115" y2="85.3239" gradientUnits="userSpaceOnUse">
<stop offset="0.162" stop-color="#FE5D6F"/>
<stop offset="0.2199" stop-color="#FE7887"/>
<stop offset="0.3368" stop-color="#FEA8B1"/>
<stop offset="0.4479" stop-color="#FFCED3"/>
<stop offset="0.5502" stop-color="#FFE9EB"/>
<stop offset="0.6406" stop-color="#FFF9FA"/>
<stop offset="0.7095" stop-color="white"/>
</linearGradient>
<linearGradient id="paint11_linear" x1="147.497" y1="61.3157" x2="147.516" y2="85.6182" gradientUnits="userSpaceOnUse">
<stop offset="0.162" stop-color="#FE5D6F"/>
<stop offset="0.2199" stop-color="#FE7887"/>
<stop offset="0.3368" stop-color="#FEA8B1"/>
<stop offset="0.4479" stop-color="#FFCED3"/>
<stop offset="0.5502" stop-color="#FFE9EB"/>
<stop offset="0.6406" stop-color="#FFF9FA"/>
<stop offset="0.7095" stop-color="white"/>
</linearGradient>
<linearGradient id="paint12_linear" x1="111.365" y1="37.8132" x2="111.383" y2="62.1157" gradientUnits="userSpaceOnUse">
<stop offset="0.162" stop-color="#FE5D6F"/>
<stop offset="0.2199" stop-color="#FE7887"/>
<stop offset="0.3368" stop-color="#FEA8B1"/>
<stop offset="0.4479" stop-color="#FFCED3"/>
<stop offset="0.5502" stop-color="#FFE9EB"/>
<stop offset="0.6406" stop-color="#FFF9FA"/>
<stop offset="0.7095" stop-color="white"/>
</linearGradient>
<linearGradient id="paint13_linear" x1="108.99" y1="128.466" x2="112.234" y2="177.956" gradientUnits="userSpaceOnUse">
<stop offset="0.1499" stop-color="#FF9800"/>
<stop offset="1" stop-color="#FFC107"/>
</linearGradient>
<linearGradient id="paint14_linear" x1="31.625" y1="130.412" x2="187.404" y2="130.412" gradientUnits="userSpaceOnUse">
<stop offset="0.1499" stop-color="#FF9800"/>
<stop offset="1" stop-color="#FFC107"/>
</linearGradient>
<linearGradient id="paint15_linear" x1="109.515" y1="185.964" x2="109.515" y2="20.0074" gradientUnits="userSpaceOnUse">
<stop offset="0.1821" stop-color="#FFC107"/>
<stop offset="0.9196" stop-color="#FFF568" stop-opacity="0"/>
</linearGradient>
<linearGradient id="paint16_linear" x1="119.991" y1="269.074" x2="216.999" y2="290.003" gradientUnits="userSpaceOnUse">
<stop stop-color="white"/>
<stop offset="1" stop-color="#CECED7"/>
</linearGradient>
<linearGradient id="paint17_linear" x1="141.932" y1="223.355" x2="214.394" y2="238.375" gradientUnits="userSpaceOnUse">
<stop offset="0.00837989" stop-color="#33BAFE"/>
<stop offset="0.0592478" stop-color="#329EE8"/>
<stop offset="0.1445" stop-color="#3176C8"/>
<stop offset="0.2282" stop-color="#3056AF"/>
<stop offset="0.3089" stop-color="#303F9D"/>
<stop offset="0.3852" stop-color="#2F3293"/>
<stop offset="0.4525" stop-color="#2F2D8F"/>
<stop offset="0.5733" stop-color="#1C1B77"/>
<stop offset="0.7081" stop-color="#0E0D65"/>
<stop offset="0.848" stop-color="#05055A"/>
<stop offset="1" stop-color="#020256"/>
</linearGradient>
<linearGradient id="paint18_linear" x1="193.3" y1="91.9991" x2="203.575" y2="130.074" gradientUnits="userSpaceOnUse">
<stop stop-color="#00A9FE"/>
<stop offset="0.0618749" stop-color="#009FF4"/>
<stop offset="0.2135" stop-color="#008DE0"/>
<stop offset="0.3888" stop-color="#0081D2"/>
<stop offset="0.6069" stop-color="#0079CA"/>
<stop offset="1" stop-color="#0077C8"/>
</linearGradient>
<linearGradient id="paint19_linear" x1="185.19" y1="91.8262" x2="199.482" y2="91.8262" gradientUnits="userSpaceOnUse">
<stop stop-color="#00A9FE"/>
<stop offset="0.0618749" stop-color="#009FF4"/>
<stop offset="0.2135" stop-color="#008DE0"/>
<stop offset="0.3888" stop-color="#0081D2"/>
<stop offset="0.6069" stop-color="#0079CA"/>
<stop offset="1" stop-color="#0077C8"/>
</linearGradient>
<linearGradient id="paint20_linear" x1="176.483" y1="125.803" x2="199.459" y2="125.803" gradientUnits="userSpaceOnUse">
<stop stop-color="#00A9FE"/>
<stop offset="0.0618749" stop-color="#009FF4"/>
<stop offset="0.2135" stop-color="#008DE0"/>
<stop offset="0.3888" stop-color="#0081D2"/>
<stop offset="0.6069" stop-color="#0079CA"/>
<stop offset="1" stop-color="#0077C8"/>
</linearGradient>
<linearGradient id="paint21_linear" x1="160.405" y1="154.205" x2="258.822" y2="164.087" gradientUnits="userSpaceOnUse">
<stop stop-color="#0077C8"/>
<stop offset="0.3931" stop-color="#0079CA"/>
<stop offset="0.6112" stop-color="#0081D2"/>
<stop offset="0.7865" stop-color="#008DE0"/>
<stop offset="0.9381" stop-color="#009FF4"/>
<stop offset="1" stop-color="#00A9FE"/>
</linearGradient>
<linearGradient id="paint22_linear" x1="180.144" y1="164.92" x2="147.472" y2="117.228" gradientUnits="userSpaceOnUse">
<stop stop-color="#0077C8"/>
<stop offset="0.3931" stop-color="#0079CA"/>
<stop offset="0.6112" stop-color="#0081D2"/>
<stop offset="0.7865" stop-color="#008DE0"/>
<stop offset="0.9381" stop-color="#009FF4"/>
<stop offset="1" stop-color="#00A9FE"/>
</linearGradient>
<linearGradient id="paint23_linear" x1="132.279" y1="128.479" x2="144.818" y2="128.479" gradientUnits="userSpaceOnUse">
<stop stop-color="#00A9FE"/>
<stop offset="0.0618749" stop-color="#009FF4"/>
<stop offset="0.2135" stop-color="#008DE0"/>
<stop offset="0.3888" stop-color="#0081D2"/>
<stop offset="0.6069" stop-color="#0079CA"/>
<stop offset="1" stop-color="#0077C8"/>
</linearGradient>
</defs>
</svg>
