<svg width="196" height="199" viewBox="0 0 196 199" fill="none" xmlns="http://www.w3.org/2000/svg">
<path d="M165.851 128.484L100.866 90.7897C99.194 89.7368 97.1045 89.7368 95.4328 90.7897L30.4478 128.484H20V137.118C20 138.592 20.6269 139.855 22.0896 140.698L95.4328 183.446C97.1045 184.499 99.194 184.499 100.866 183.446L174.209 140.698C175.672 139.855 176.298 138.592 176.298 137.118V128.484H165.851Z" fill="url(#paint0_linear)"/>
<path d="M98 192.893C96.9552 192.893 95.7015 192.682 94.6567 192.051L12.9552 144.248C11.2836 143.406 10.4478 141.721 10.4478 140.037C10.4478 138.142 11.4925 136.457 12.9552 135.615L94.8657 88.0231C96.9552 86.7596 99.4627 86.7596 101.343 88.0231L183.254 135.615C184.925 136.457 185.761 138.142 185.761 140.037C185.761 141.932 184.716 143.617 183.254 144.459L101.134 192.051C100.299 192.472 99.0448 192.893 98 192.893ZM98 88.0231C96.9552 88.0231 96.1194 88.2336 95.2836 88.8654L13.3731 136.246C12.1194 137.089 11.2836 138.352 11.2836 139.826C11.2836 141.3 12.1194 142.774 13.3731 143.406L95.2836 190.998C96.9552 192.051 99.2537 192.051 100.925 190.998L182.836 143.406L183.045 143.827L182.836 143.406C184.09 142.564 184.925 141.3 184.925 139.826C184.925 138.352 184.09 136.878 182.836 136.246L100.716 88.6548C99.8806 88.2336 98.8358 88.0231 98 88.0231Z" fill="url(#paint1_linear)"/>
<path d="M98 199C96.7463 199 95.4925 198.579 94.4478 197.947L2.71642 144.88C1.04478 143.827 0 141.932 0 140.037C0 137.931 1.04478 136.247 2.71642 135.194L94.2388 81.9164C96.5373 80.6529 99.2537 80.6529 101.552 81.9164L193.075 135.194C194.746 136.247 195.791 138.142 195.791 140.037C195.791 142.143 194.746 143.827 193.075 144.88L101.552 198.158C100.507 198.789 99.2537 199 98 199ZM98 81.7058C96.9552 81.7058 95.9104 81.9164 94.8657 82.5481L3.34328 135.825C1.8806 136.668 1.04478 138.142 1.04478 139.826C1.04478 141.511 1.8806 142.985 3.34328 143.827L94.8657 197.105C96.7463 198.158 99.2537 198.158 101.134 197.105L192.657 143.827C194.119 142.985 194.955 141.511 194.955 139.826C194.955 138.142 194.119 136.668 192.657 135.825L101.134 82.5481C100.09 81.9164 99.0448 81.7058 98 81.7058Z" fill="url(#paint2_linear)"/>
<path d="M174.06 132.877L100.716 175.415C99.0448 176.468 96.9552 176.468 95.2836 175.415L21.7313 132.877C19.0149 131.192 19.0149 127.191 21.7313 125.717L95.0746 82.9691C96.7463 81.9162 98.8358 81.9162 100.507 82.9691L137.179 104.343L173.851 125.717C176.776 127.191 176.776 131.192 174.06 132.877Z" fill="url(#paint3_linear)"/>
<path d="M88.806 8.84474L36.5672 39.1686C34.8955 40.2215 33.8507 41.9061 33.8507 43.8014V81.7061C33.8507 83.6014 35.9403 84.8649 37.6119 83.812L47.4328 78.1262L99.6716 47.8024C101.343 46.7495 102.388 45.0648 102.388 43.1696V5.26484C102.388 3.36961 100.299 2.10611 98.6269 3.15902L88.806 8.84474Z" fill="url(#paint4_linear)"/>
<path d="M121.821 83.812L94.0298 67.5972L95.0746 96.8681L122.866 113.083L123.493 109.503V86.9707L121.821 83.812Z" fill="url(#paint5_linear)"/>
<path d="M94.0298 67.5971C92.7761 66.9654 91.3134 66.9654 90.0597 67.5971L45.9701 93.2881C41.791 95.6045 39.2836 100.237 39.2836 105.081V129.508L67.2836 145.723L67.7015 131.825V120.243L68.9552 116.242L71.6716 111.819L77.9403 107.818L95.4925 97.7103L118.687 84.2331L121.821 83.8119L94.0298 67.5971Z" fill="url(#paint6_linear)"/>
<path d="M68.1194 144.881L67.2836 145.512V121.296C67.2836 116.452 69.791 112.03 73.9701 109.503L118.06 83.8119C119.313 83.1802 120.776 83.1802 122.03 83.8119C123.284 84.4437 124.119 85.4966 124.119 87.3918V112.451L123.075 113.083V87.3918C123.075 86.3389 122.448 85.286 121.612 84.6543C120.567 84.0225 119.522 84.0225 118.478 84.6543L74.1791 110.345C70.4179 112.662 67.9104 116.873 67.9104 121.296V144.881H68.1194Z" fill="#C2D8FE"/>
<path d="M68.1194 144.881L67.2836 145.512V121.296C67.2836 116.452 69.791 112.03 73.9701 109.503L118.06 83.8119C119.313 83.1802 120.776 83.1802 122.03 83.8119C123.284 84.4437 124.119 85.4966 124.119 87.3918V112.451L123.075 113.083V87.3918C123.075 86.3389 122.448 85.286 121.612 84.6543C120.567 84.0225 119.522 84.0225 118.478 84.6543L74.1791 110.345C70.4179 112.662 67.9104 116.873 67.9104 121.296V144.881H68.1194Z" fill="#C2D8FE"/>
<path d="M105.522 85.2858L76.8955 101.922C75.0149 102.975 72.5074 102.975 70.6268 101.922L62.4776 97.289C61.0149 96.4467 61.0149 94.1303 62.4776 93.288L91.1045 76.652C92.9851 75.5991 95.4925 75.5991 97.3731 76.652L105.522 81.2848C107.194 82.1271 107.194 84.4435 105.522 85.2858Z" fill="white"/>
<path d="M97.3731 114.557C97.3731 114.557 96.1194 117.505 95.2836 119.401C94.6567 121.085 88.388 118.558 88.388 118.558L91.3134 116.874C91.3134 116.874 92.7761 115.821 93.403 112.873C94.0298 111.188 97.3731 114.557 97.3731 114.557Z" fill="#FFA77E"/>
<path d="M96.3283 100.237C95.0746 101.922 92.1492 115.189 92.1492 115.821C92.1492 116.452 95.0746 118.348 96.3283 117.505C97.5821 116.663 99.8806 110.556 100.09 109.082C100.09 109.082 101.343 103.607 101.552 103.607C101.343 103.607 97.1642 99.1846 96.3283 100.237Z" fill="#2F2D8F"/>
<path d="M84.4179 120.454C85.4627 121.296 87.1343 121.928 89.2239 121.928C89.8507 121.928 90.4776 122.138 90.8955 122.349C91.9403 122.981 93.8209 122.981 94.8656 122.77C95.0746 122.77 95.7015 121.928 95.9104 121.717V122.77C95.7015 123.402 95.0746 123.823 94.4477 124.033C93.403 124.033 91.9403 124.033 90.6865 123.402C90.0597 123.191 89.6418 122.981 89.0149 122.981C87.1343 122.981 85.2537 122.349 84.2089 121.506C83.791 121.085 83.3731 120.032 83.5821 119.401C84 119.401 84.2089 120.243 84.4179 120.454Z" fill="#020256"/>
<path d="M95.4925 118.769C95.7015 118.769 95.9104 118.769 95.9104 118.979L96.1194 121.717C96.3283 122.138 95.7015 122.77 95.0746 122.98C94.0298 122.98 92.1492 122.98 91.1045 122.349C90.4776 122.138 90.0597 121.927 89.4328 121.927C87.5522 121.927 85.6716 121.085 84.6268 120.243C84.2089 119.822 84 118.979 84.2089 118.558C84.4179 118.137 84.8358 118.137 85.2537 117.926C85.6716 117.716 86.9254 117.716 88.1791 117.926C90.2686 118.137 91.3134 116.873 91.7313 117.084C91.1045 117.505 90.6865 121.296 95.4925 118.769Z" fill="#0075C7"/>
<path d="M88.1791 118.979C88.1791 118.979 88.388 118.979 88.1791 118.979C88.597 117.926 89.4328 117.505 89.4328 117.505C89.4328 117.505 89.4328 117.505 89.4328 117.295C89.4328 117.295 89.4328 117.295 89.2238 117.295C89.4328 117.295 88.597 117.926 88.1791 118.979C88.1791 118.769 88.1791 118.979 88.1791 118.979Z" fill="#020256"/>
<path d="M86.9254 119.19C87.3433 118.137 88.1791 117.716 88.1791 117.716C88.1791 117.716 88.1791 117.716 88.1791 117.505C88.1791 117.505 88.1791 117.505 87.9701 117.505C88.1791 117.716 87.1343 118.137 86.9254 119.19C86.7164 118.979 86.7164 119.19 86.9254 119.19Z" fill="#020256"/>
<path d="M85.6716 119.19C86.0895 118.137 86.9253 117.716 86.9253 117.716C86.9253 117.716 86.9253 117.716 86.9253 117.505C86.9253 117.505 86.9253 117.505 86.7164 117.505C86.9253 117.505 85.8806 118.137 85.6716 119.19C85.4627 118.979 85.6716 119.19 85.6716 119.19Z" fill="#020256"/>
<path d="M131.851 115.61L115.761 106.344L116.388 123.191L132.687 132.456L132.896 130.561V117.294L131.851 115.61Z" fill="url(#paint7_linear)"/>
<path d="M115.761 106.344C115.134 105.923 114.09 105.923 113.463 106.344L87.9701 121.085C85.6716 122.559 84 125.086 84 127.824V141.933L100.09 151.409L100.299 143.407V136.879L100.925 134.562L102.597 132.035L106.149 129.719L116.179 123.822L129.761 116.031L131.642 115.82L115.761 106.344Z" fill="url(#paint8_linear)"/>
<path d="M100.925 150.987L100.299 151.198V137.089C100.299 134.351 101.761 131.614 104.269 130.35L129.761 115.61C130.388 115.188 131.433 115.188 132.06 115.61C132.687 116.031 133.313 116.873 133.313 117.715V132.246L132.687 132.667V117.926C132.687 117.294 132.269 116.662 131.851 116.452C131.224 116.031 130.597 116.031 129.97 116.452L104.478 131.193C102.179 132.456 100.925 134.983 100.925 137.51V150.987Z" fill="#C2D8FE"/>
<path d="M84.2089 122.349C84.2089 122.349 82.9552 125.297 82.1194 127.192C81.4925 128.877 75.6418 125.928 75.6418 125.928L78.1492 124.665C78.1492 124.665 79.6119 123.612 80.2388 120.664C80.8657 118.769 84.2089 122.349 84.2089 122.349Z" fill="#FFA77E"/>
<path d="M82.9552 108.029C81.7015 109.714 78.7761 122.981 78.7761 123.612C78.7761 124.244 81.7015 126.139 82.9552 125.297C84.2089 124.455 86.5075 118.348 86.7164 116.874C86.7164 116.874 87.9701 111.399 88.1791 111.399C88.1791 111.399 83.791 106.976 82.9552 108.029Z" fill="#2F2D8F"/>
<path d="M83.3731 107.819C84.8358 108.029 87.9701 111.188 87.9701 111.188L86.5074 116.663C86.5074 118.348 84.2089 124.244 82.7462 125.086C82.5373 125.297 82.3283 125.297 82.1194 125.297C82.5373 125.297 82.7462 125.297 82.9552 125.086C84.2089 124.244 86.5074 118.137 86.7164 116.663C86.7164 116.663 87.9701 111.188 88.1791 111.188C88.1791 111.398 84.6268 107.608 83.3731 107.819Z" fill="#020256"/>
<path d="M71.6716 127.613C72.7164 128.456 74.388 129.087 76.4776 129.087C77.1045 129.087 77.7313 129.298 78.1492 129.508C79.194 130.14 81.0746 130.14 82.1194 129.93C82.3283 129.93 82.9552 129.087 83.1642 128.877V129.93C82.9552 130.561 82.3283 130.983 81.7015 131.193C80.6567 131.193 79.194 131.193 77.9403 130.561C77.3134 130.351 76.8955 130.14 76.2686 130.14C74.388 130.14 72.5074 129.508 71.4627 128.666C71.0448 128.245 70.6269 127.192 70.8358 126.56C71.2537 126.771 71.4627 127.403 71.6716 127.613Z" fill="#020256"/>
<path d="M82.5373 126.139C82.7463 126.139 82.9552 126.139 82.9552 126.35L83.1642 129.087C83.3731 129.509 82.7463 130.14 82.1194 130.351C81.0746 130.351 79.194 130.351 78.1492 129.719C77.5224 129.509 77.1045 129.298 76.4776 129.298C74.597 129.298 72.7164 128.456 71.6716 127.613C71.2537 127.192 71.0448 126.35 71.2537 125.929C71.4627 125.508 71.8806 125.508 72.2985 125.297C72.7164 125.086 73.9701 125.086 75.2239 125.297C77.3134 125.508 78.3582 124.244 78.7761 124.455C78.3582 124.665 77.7313 128.666 82.5373 126.139Z" fill="#0075C7"/>
<path d="M75.4328 126.139C75.8507 125.086 76.6866 124.665 76.6866 124.665C76.6866 124.665 76.6866 124.665 76.6866 124.455C76.6866 124.455 76.6865 124.455 76.4776 124.455C76.6865 124.665 75.6418 125.086 75.4328 126.139Z" fill="#020256"/>
<path d="M74.1791 126.35C74.597 125.297 75.4328 124.876 75.4328 124.876C75.4328 124.876 75.4328 124.876 75.4328 124.665C75.4328 124.665 75.4328 124.665 75.2239 124.665C75.2239 124.876 74.388 125.297 74.1791 126.35C73.9701 126.35 73.9701 126.35 74.1791 126.35C73.9701 126.35 73.9701 126.35 74.1791 126.35Z" fill="#020256"/>
<path d="M72.9254 126.35C73.3433 125.297 74.1791 124.876 74.1791 124.876C74.1791 124.876 74.1791 124.876 74.1791 124.665C74.1791 124.665 74.1791 124.665 73.9701 124.665C73.9701 124.876 73.1343 125.297 72.9254 126.35C72.7164 126.35 72.7164 126.35 72.9254 126.35Z" fill="#020256"/>
<path d="M117.015 115.4V108.24C117.015 108.24 115.552 104.87 112.836 103.396C109.493 101.712 102.388 97.9212 98 98.5529C97.5821 98.5529 96.3283 99.6059 96.1194 100.659C95.9104 101.501 95.9104 101.291 95.9104 102.343C95.9104 104.87 97.3731 105.923 97.3731 105.923C98 105.713 110.746 114.978 117.015 115.4Z" fill="#2F2D8F"/>
<path d="M100.09 105.502C99.6716 105.081 99.2537 107.397 99.2537 107.397C99.2537 107.397 99.4627 107.187 99.6716 107.187C99.6716 107.187 99.6716 107.187 99.8806 107.187C100.299 107.397 100.716 107.819 101.134 108.029C100.299 107.187 100.299 105.923 100.09 105.502Z" fill="#020256"/>
<path d="M119.313 110.977C119.104 109.924 110.119 115.61 109.284 115.189C109.284 115.189 102.388 112.873 99.6716 111.399C96.3283 109.714 89.2239 105.923 84.8358 106.555C84.4179 106.555 83.1642 107.608 82.9552 108.661C82.7463 109.503 82.7462 109.293 82.7462 110.346C82.7462 112.873 84.2089 113.926 84.2089 113.926C85.0448 113.926 99.0448 123.402 105.313 124.033C108.657 124.455 110.119 124.244 111.791 123.823C114.09 122.981 119.731 120.875 120.149 118.558C120.358 116.242 119.522 112.03 119.313 110.977Z" fill="#2F2D8F"/>
<path d="M87.5522 114.136C87.1343 113.715 86.9254 114.557 86.9254 115.189V115.61C86.9254 115.61 87.9701 115.821 88.597 116.242C87.9701 115.4 87.7612 114.557 87.5522 114.136Z" fill="#020256"/>
<path d="M93.194 88.8659C92.9851 89.0765 92.7761 89.0765 92.5671 89.0765C92.1492 89.0765 91.3134 89.0765 90.6866 88.6553C89.8507 88.2342 89.8507 88.0236 89.2239 87.813C88.597 87.6024 87.7612 87.6024 87.5522 87.6024C87.1343 87.6024 86.5074 87.1813 86.2985 86.7601C86.0895 86.5495 86.0895 86.1283 86.2985 85.9178C86.5074 85.7072 86.5074 85.4966 86.9253 85.4966C87.3433 85.286 87.7612 85.286 88.1791 85.286C88.597 85.286 90.4776 85.0754 91.1045 85.0754C91.7313 85.0754 93.8209 85.9178 94.0298 86.1283C94.4477 86.3389 94.0298 86.9707 94.6567 86.9707C94.8656 86.9707 94.8657 86.9707 94.8657 86.9707C94.6567 86.9707 94.6567 87.1813 94.6567 87.3918L94.8657 87.813C94.8657 88.0236 94.8656 88.0236 94.6567 88.2342L93.194 88.8659Z" fill="#FFA77E"/>
<path d="M103.224 86.5496C101.761 86.7602 95.9104 86.339 92.9851 85.9179C92.9851 85.9179 92.1492 87.6025 92.3582 88.6554L92.7761 88.866C96.7463 89.4978 97.3731 90.7612 101.761 90.5507C103.224 90.5507 104.478 90.3401 105.731 89.9189C105.522 88.6554 105.313 87.1814 105.313 85.7073C104.687 86.1284 103.851 86.339 103.224 86.5496Z" fill="#FFA77E"/>
<path d="M117.642 82.5487C116.806 81.7063 114.925 81.4957 114.299 81.7063C112.209 82.1275 108.448 84.6545 105.522 85.918C105.522 87.392 105.731 88.8661 105.94 90.1296C109.075 89.2873 111.582 88.2344 116.597 88.0238C118.478 88.0238 118.269 89.919 118.687 88.0238C118.687 86.3391 118.478 83.1804 117.642 82.5487Z" fill="#00579F"/>
<path d="M110.328 86.7604L111.373 85.9181C111.582 85.0758 110.955 80.0218 111.164 80.0218C114.716 76.8631 114.716 73.7043 112 71.1773C108.866 68.2292 103.642 67.808 101.343 71.3879C100.716 72.2303 100.716 72.6514 100.716 74.5467V74.7572C100.925 75.389 101.134 76.0207 100.925 76.8631C100.716 77.2842 100.925 77.916 100.925 78.7583C101.134 79.6006 101.343 80.2324 101.552 81.0747V81.2853C101.552 81.4959 101.552 81.917 101.97 81.917C101.97 81.917 101.761 82.1276 101.97 82.3382C103.015 82.7593 104.269 82.7594 104.687 82.5488C105.104 82.3382 104.896 87.8133 104.896 88.2345C104.687 88.6557 107.403 88.0239 108.239 87.8133C108.448 87.8133 108.448 87.6027 108.657 87.6027L110.328 86.7604Z" fill="#FFA77E"/>
<path d="M103.224 80.6535C104.269 80.443 104.269 78.5477 104.269 78.3371C104.269 78.1266 104.269 77.916 104.269 77.2842C104.269 76.6525 103.433 75.8102 103.642 75.5996C105.313 74.3361 104.896 73.2832 103.433 72.6514C102.806 72.2303 100.925 72.0197 101.343 71.3879C103.642 67.808 108.866 68.2292 112 71.1773C114.716 73.9149 114.925 76.8631 111.164 80.0218C111.164 80.0218 111.164 81.4959 111.164 81.7064L109.284 82.7594C108.239 82.9699 106.985 80.443 106.567 79.6006L105.731 77.916V78.1265C105.522 79.6006 105.104 81.0747 104.478 82.5488C104.269 82.5488 103.015 82.7594 101.761 82.3382C101.552 82.1276 101.343 81.917 101.343 81.7064C101.343 81.4959 101.343 81.4959 101.343 81.4959C101.134 80.8641 100.925 79.8112 100.925 78.9689C101.761 78.9689 102.388 80.8641 103.224 80.6535Z" fill="#020256"/>
<path d="M100.298 72.0195C100.298 72.0195 101.134 73.283 102.806 73.7042C104.478 74.1253 105.731 74.5465 109.91 77.0735C111.582 78.1264 110.746 78.7581 111.373 79.1793C112 79.6005 113.463 78.337 113.672 77.7052C113.881 77.2841 113.881 74.9676 114.507 75.81C114.925 76.6523 114.507 74.3359 114.507 73.4936C114.507 72.2301 112.418 70.9666 112.418 70.9666C112.418 70.9666 110.746 69.0713 110.746 69.7031C110.746 69.9137 108.448 68.229 108.448 68.4396C108.448 68.6502 107.821 68.4396 107.403 68.229C106.567 67.8079 105.522 67.8079 104.478 67.8079C104.269 67.8079 104.06 67.8079 103.851 67.8079C103.224 68.0184 101.343 68.6502 100.716 68.6502C99.4627 68.6502 99.2537 68.6502 100.507 70.756C100.716 70.9666 99.8806 70.756 99.8806 70.9666C99.8806 71.3878 100.298 72.0195 100.298 72.0195Z" fill="#020256"/>
<path d="M105.731 79.811C105.522 79.3898 105.313 78.7581 105.522 78.3369C105.522 77.9157 105.731 77.7052 105.94 77.4946C106.358 77.0734 106.985 77.0734 107.403 77.4946C107.612 77.9157 107.612 78.5475 106.985 78.9687C106.358 79.3898 106.567 79.811 106.567 79.811C105.94 80.2321 106.149 80.0216 106.149 80.2321C105.94 80.0216 105.94 80.0216 105.731 79.811Z" fill="#FFA77E"/>
<path d="M117.642 82.3378C116.806 81.4955 115.134 81.2849 114.507 81.2849C113.254 81.2849 111.373 82.5484 111.373 82.5484C111.582 82.759 111.791 82.9696 111.791 83.3907C111.791 84.0225 110.955 85.0754 110.328 85.286C109.075 85.9177 106.358 85.4966 105.522 86.1283C104.06 86.9706 100.716 88.8659 99.8806 91.814C99.2537 93.4987 101.343 102.764 101.343 107.397C101.343 108.45 101.552 108.871 100.925 109.292C100.716 109.503 100.507 109.713 100.299 109.713L99.2537 110.766C100.09 111.188 100.09 112.03 100.716 113.083C101.552 114.767 101.343 119.821 101.761 120.032C104.06 120.874 108.448 120.874 110.119 120.243C115.134 118.137 120.567 116.873 120.149 114.767C119.522 110.345 117.851 106.134 118.269 101.922C118.896 95.1833 119.104 84.0225 117.642 82.3378Z" fill="url(#paint9_linear)"/>
<path d="M104.06 86.5499C104.269 86.1287 104.896 86.1287 105.104 85.9181C106.149 85.7075 107.821 85.7075 109.075 85.2864C110.328 84.8652 110.955 84.6546 111.164 84.0229C111.164 84.0229 111.164 83.8123 111.164 83.6017C111.164 83.1806 111.164 82.3382 111.164 81.9171C111.164 81.7065 111.373 81.9171 111.791 82.1276C114.298 83.1806 112.627 86.1287 111.373 86.7605L110.328 87.1816C109.701 87.3922 109.075 87.3922 108.448 87.6028C106.776 88.024 102.806 87.8134 102.806 87.8134L104.06 86.5499Z" fill="url(#paint10_linear)"/>
<path d="M111.582 87.6024C113.045 86.7601 114.716 83.6014 112.209 82.3379H112C114.507 83.3908 112.836 86.339 111.373 86.9707L110.328 87.3919C109.701 87.6024 109.075 87.6025 108.448 87.813C106.776 88.2342 103.433 88.0236 103.015 88.0236C103.433 88.2342 105.522 88.6554 109.284 88.2342C109.91 88.2342 111.164 87.813 111.582 87.6024Z" fill="#00579F"/>
<path d="M73.7612 97.7107C73.9701 97.5001 74.1791 97.5001 74.388 97.2895C74.806 97.0789 75.2239 96.8683 75.6418 96.8683C76.0597 96.6578 77.9403 96.2366 78.5672 96.2366C78.9851 96.2366 80.0298 96.6578 80.8657 96.8683C81.2836 96.8683 81.7015 96.8683 82.3284 97.0789C84.8358 97.7107 91.9403 98.9742 92.9851 98.9742C93.8209 98.9742 94.0298 99.3953 94.8657 98.1318C95.7015 96.8683 97.791 95.6048 98.2089 94.7625C99.2537 93.2884 101.343 90.7615 103.224 90.3403C104.687 89.9191 104.687 90.1297 105.522 91.6038C106.985 93.9202 105.104 96.2366 103.642 98.1318C101.552 100.869 95.4925 103.607 94.2388 103.607C92.9851 103.607 83.5821 101.08 80.0298 100.027C79.6119 100.027 78.9851 100.027 78.3582 99.8165C77.5224 99.3953 77.5224 98.9742 76.8955 98.9742C76.0597 98.9742 75.2239 98.9742 75.0149 98.9742C74.597 98.9742 73.9701 98.553 73.7612 98.1318C73.5522 97.9212 73.7612 97.7107 73.7612 97.7107Z" fill="#FFA77E"/>
<path d="M107.194 92.6567C106.567 90.9721 104.687 89.9191 103.224 90.1297C101.134 90.3403 99.6717 92.6567 98.209 94.1308C97.5821 94.7625 96.7463 95.3943 95.9105 96.2366C95.7015 96.4472 95.7015 96.6578 95.2836 96.8684C95.2836 100.238 97.5821 101.501 98.6269 101.712C99.0448 101.501 99.4627 101.501 99.6717 101.501C101.343 100.869 102.806 100.027 103.851 99.1848C105.731 97.7107 108.448 95.6049 107.194 92.6567Z" fill="url(#paint11_linear)"/>
<path d="M95.9104 96.2366C95.7015 96.4472 95.2836 96.6577 95.0746 97.0789C95.0746 100.448 97.5821 101.922 98.6269 102.133C99.0448 101.922 99.4627 101.922 99.6716 101.712C98.4179 101.08 96.1194 99.6059 95.9104 96.2366Z" fill="#00579F"/>
<path d="M45.7612 75.3882C45.1343 75.8094 44.5075 75.5988 44.5075 74.967V60.0157C44.5075 59.384 45.1343 58.5416 45.7612 58.1205C46.3881 57.6993 47.0149 57.9099 47.0149 58.5416V73.493C46.806 74.1247 46.3881 74.967 45.7612 75.3882Z" fill="white"/>
<path d="M53.4925 61.2795C52.8657 61.7006 52.2388 61.49 52.2388 60.8583V36.0096C52.2388 35.3779 52.8657 34.5355 53.4925 34.1144C54.1194 33.6932 54.7463 33.9038 54.7463 34.5355V59.3842C54.7463 60.016 54.3284 60.8583 53.4925 61.2795Z" fill="#FEAE6F"/>
<path d="M61.4328 42.5375C60.806 42.9587 60.1791 42.7481 60.1791 42.1164V31.5873C60.1791 30.9555 60.806 30.1132 61.4328 29.692C62.0597 29.2709 62.6866 29.4814 62.6866 30.1132V40.6423C62.6866 41.274 62.2687 42.1164 61.4328 42.5375Z" fill="url(#paint12_linear)"/>
<path d="M61.4328 65.07C60.806 65.4911 60.1791 65.2806 60.1791 64.6488V54.1197C60.1791 53.488 60.806 52.6456 61.4328 52.2245C62.0597 51.8033 62.6866 52.0139 62.6866 52.6457V63.1747C62.6866 63.8065 62.2687 64.6488 61.4328 65.07Z" fill="url(#paint13_linear)"/>
<path d="M45.7612 47.5917C45.1343 48.0129 44.5075 47.8023 44.5075 47.1706V43.5907C44.5075 42.9589 45.1343 42.1166 45.7612 41.6954C46.3881 41.2743 47.0149 41.4849 47.0149 42.1166V45.6965C46.806 46.3282 46.3881 47.1706 45.7612 47.5917Z" fill="url(#paint14_linear)"/>
<path d="M69.3731 51.5929C68.7463 52.0141 68.1194 51.8035 68.1194 51.1717V26.7442C68.1194 26.1125 68.7463 25.2702 69.3731 24.849C70 24.4278 70.6269 24.6384 70.6269 25.2702V49.6977C70.6269 50.3294 70 51.3823 69.3731 51.5929Z" fill="white"/>
<path d="M77.5224 52.435C76.8955 52.8561 76.2687 52.6456 76.2687 52.0138V27.1651C76.2687 26.5334 76.8955 25.6911 77.5224 25.2699C78.1492 24.8487 78.7761 25.0593 78.7761 25.6911V50.5397C78.7761 51.1715 78.1492 52.0138 77.5224 52.435Z" fill="url(#paint15_linear)"/>
<path d="M85.4627 52.6455C84.8358 53.0666 84.209 52.8561 84.209 52.2243V31.1661C84.209 30.5344 84.8358 29.692 85.4627 29.2709C86.0896 28.8497 86.7164 29.0603 86.7164 29.692V50.7502C86.7164 51.382 86.0896 52.2243 85.4627 52.6455Z" fill="#FEAE6F"/>
<path d="M85.4627 52.6455C84.8358 53.0666 84.209 52.8561 84.209 52.2243V31.1661C84.209 30.5344 84.8358 29.692 85.4627 29.2709C86.0896 28.8497 86.7164 29.0603 86.7164 29.692V50.7502C86.7164 51.382 86.0896 52.2243 85.4627 52.6455Z" fill="#FEAE6F"/>
<path d="M93.403 37.6942C92.7761 38.1154 92.1493 37.9048 92.1493 37.2731V12.8456C92.1493 12.2138 92.7761 11.3715 93.403 10.9503C94.0298 10.5292 94.6567 10.7397 94.6567 11.3715V35.799C94.6567 36.4307 94.0298 37.2731 93.403 37.6942Z" fill="white"/>
<path d="M131.224 45.0646H120.358C112.418 45.0646 105.94 38.5365 105.94 30.5344V14.5302C105.94 6.52804 112.418 0 120.358 0H131.224C139.164 0 145.642 6.52804 145.642 14.5302V30.3238C145.642 38.5365 139.164 45.0646 131.224 45.0646Z" fill="url(#paint16_linear)"/>
<path d="M40.9552 116.662L30.7164 90.9714C30.5075 90.3397 30.2985 89.4974 30.2985 88.655V47.1704C30.2985 46.7492 30.9254 46.5386 31.1343 46.9598L41.3731 72.6508C41.5821 73.2825 41.791 74.1249 41.791 74.9672V116.452C41.791 117.084 41.1642 117.084 40.9552 116.662Z" fill="url(#paint17_linear)"/>
<path d="M134.567 6.73868H114.716C113.881 6.73868 113.254 6.10693 113.254 5.2646C113.254 4.42227 113.881 3.79053 114.716 3.79053H134.567C135.403 3.79053 136.03 4.42227 136.03 5.2646C136.03 6.31751 135.403 6.73868 134.567 6.73868Z" fill="url(#paint18_linear)"/>
<path d="M140.836 15.162H111.164C110.328 15.162 109.701 14.5303 109.701 13.6879C109.701 12.8456 110.328 12.2139 111.164 12.2139H140.627C141.463 12.2139 142.09 12.8456 142.09 13.6879C142.09 14.5303 141.463 15.162 140.836 15.162Z" fill="#FEAE6F"/>
<path d="M128.299 23.3744H111.164C110.328 23.3744 109.701 22.7427 109.701 21.9003C109.701 21.058 110.328 20.4263 111.164 20.4263H128.299C129.134 20.4263 129.761 21.058 129.761 21.9003C129.761 22.7427 129.134 23.3744 128.299 23.3744Z" fill="url(#paint19_linear)"/>
<path d="M123.493 31.7978H111.164C110.328 31.7978 109.701 31.166 109.701 30.3237C109.701 29.4814 110.328 28.8496 111.164 28.8496H123.493C124.328 28.8496 124.955 29.4814 124.955 30.3237C124.955 31.166 124.328 31.7978 123.493 31.7978Z" fill="white"/>
<path d="M140 40.0107H111.164C110.328 40.0107 109.701 39.3789 109.701 38.5366C109.701 37.6942 110.328 37.0625 111.164 37.0625H140C140.836 37.0625 141.463 37.6942 141.463 38.5366C141.463 39.3789 140.836 40.0107 140 40.0107Z" fill="url(#paint20_linear)"/>
<defs>
<linearGradient id="paint0_linear" x1="19.8926" y1="137.111" x2="176.314" y2="137.111" gradientUnits="userSpaceOnUse">
<stop offset="0.1499" stop-color="#FF9800"/>
<stop offset="1" stop-color="#FFC107"/>
</linearGradient>
<linearGradient id="paint1_linear" x1="10.3452" y1="139.932" x2="185.563" y2="139.932" gradientUnits="userSpaceOnUse">
<stop offset="0.1499" stop-color="#FF9800"/>
<stop offset="1" stop-color="#FFC107"/>
</linearGradient>
<linearGradient id="paint2_linear" x1="0" y1="139.932" x2="195.909" y2="139.932" gradientUnits="userSpaceOnUse">
<stop offset="0.1499" stop-color="#FF9800"/>
<stop offset="1" stop-color="#FFC107"/>
</linearGradient>
<linearGradient id="paint3_linear" x1="19.7433" y1="129.177" x2="176.165" y2="129.177" gradientUnits="userSpaceOnUse">
<stop offset="0.1499" stop-color="#FF9800"/>
<stop offset="1" stop-color="#FFC107"/>
</linearGradient>
<linearGradient id="paint4_linear" x1="100.484" y1="8.36314" x2="30.0322" y2="83.6124" gradientUnits="userSpaceOnUse">
<stop stop-color="#702F73"/>
<stop offset="0.4246" stop-color="#A8227D"/>
</linearGradient>
<linearGradient id="paint5_linear" x1="127.402" y1="98.5157" x2="92.3252" y2="83.6238" gradientUnits="userSpaceOnUse">
<stop stop-color="white"/>
<stop offset="0.0298241" stop-color="#FBFCFF"/>
<stop offset="0.2496" stop-color="#E2ECFF"/>
<stop offset="0.4788" stop-color="#D0E1FE"/>
<stop offset="0.7214" stop-color="#C5DAFE"/>
<stop offset="1" stop-color="#C2D8FE"/>
</linearGradient>
<linearGradient id="paint6_linear" x1="58.1704" y1="118.164" x2="118.195" y2="75.7945" gradientUnits="userSpaceOnUse">
<stop stop-color="white"/>
<stop offset="0.0318011" stop-color="#FFFBEE"/>
<stop offset="0.139" stop-color="#FFEDB8"/>
<stop offset="0.2503" stop-color="#FFE189"/>
<stop offset="0.3634" stop-color="#FFD761"/>
<stop offset="0.4789" stop-color="#FFCF40"/>
<stop offset="0.5976" stop-color="#FFC927"/>
<stop offset="0.7206" stop-color="#FFC515"/>
<stop offset="0.8507" stop-color="#FFC20A"/>
<stop offset="1" stop-color="#FFC107"/>
</linearGradient>
<linearGradient id="paint7_linear" x1="128.637" y1="127.924" x2="113.245" y2="98.3115" gradientUnits="userSpaceOnUse">
<stop stop-color="white"/>
<stop offset="0.0298241" stop-color="#FBFCFF"/>
<stop offset="0.2496" stop-color="#E2ECFF"/>
<stop offset="0.4788" stop-color="#D0E1FE"/>
<stop offset="0.7214" stop-color="#C5DAFE"/>
<stop offset="1" stop-color="#C2D8FE"/>
</linearGradient>
<linearGradient id="paint8_linear" x1="102.058" y1="129.891" x2="137.432" y2="102.348" gradientUnits="userSpaceOnUse">
<stop stop-color="white"/>
<stop offset="0.6102" stop-color="#D8E6FE"/>
<stop offset="0.9179" stop-color="#C2D8FE"/>
</linearGradient>
<linearGradient id="paint9_linear" x1="121.912" y1="98.6605" x2="90.9402" y2="106.314" gradientUnits="userSpaceOnUse">
<stop stop-color="#00A9FE"/>
<stop offset="0.0618749" stop-color="#009FF4"/>
<stop offset="0.2135" stop-color="#008DE0"/>
<stop offset="0.3888" stop-color="#0081D2"/>
<stop offset="0.6069" stop-color="#0079CA"/>
<stop offset="1" stop-color="#0077C8"/>
</linearGradient>
<linearGradient id="paint10_linear" x1="102.917" y1="85.196" x2="113.163" y2="85.196" gradientUnits="userSpaceOnUse">
<stop stop-color="#00A9FE"/>
<stop offset="0.0618749" stop-color="#009FF4"/>
<stop offset="0.2135" stop-color="#008DE0"/>
<stop offset="0.3888" stop-color="#0081D2"/>
<stop offset="0.6069" stop-color="#0079CA"/>
<stop offset="1" stop-color="#0077C8"/>
</linearGradient>
<linearGradient id="paint11_linear" x1="95.3624" y1="96.01" x2="107.527" y2="96.01" gradientUnits="userSpaceOnUse">
<stop stop-color="#00A9FE"/>
<stop offset="0.0618749" stop-color="#009FF4"/>
<stop offset="0.2135" stop-color="#008DE0"/>
<stop offset="0.3888" stop-color="#0081D2"/>
<stop offset="0.6069" stop-color="#0079CA"/>
<stop offset="1" stop-color="#0077C8"/>
</linearGradient>
<linearGradient id="paint12_linear" x1="60.2924" y1="35.928" x2="62.7259" y2="35.928" gradientUnits="userSpaceOnUse">
<stop offset="0.1499" stop-color="#FF9800"/>
<stop offset="1" stop-color="#FFC107"/>
</linearGradient>
<linearGradient id="paint13_linear" x1="60.2924" y1="58.5801" x2="62.7259" y2="58.5801" gradientUnits="userSpaceOnUse">
<stop offset="0.1499" stop-color="#FF9800"/>
<stop offset="1" stop-color="#FFC107"/>
</linearGradient>
<linearGradient id="paint14_linear" x1="44.4582" y1="44.4755" x2="46.8919" y2="44.4755" gradientUnits="userSpaceOnUse">
<stop offset="0.1499" stop-color="#FF9800"/>
<stop offset="1" stop-color="#FFC107"/>
</linearGradient>
<linearGradient id="paint15_linear" x1="76.2891" y1="38.8076" x2="78.7226" y2="38.8076" gradientUnits="userSpaceOnUse">
<stop offset="0.1499" stop-color="#FF9800"/>
<stop offset="1" stop-color="#FFC107"/>
</linearGradient>
<linearGradient id="paint16_linear" x1="172.67" y1="21.5598" x2="90.9642" y2="23.1541" gradientUnits="userSpaceOnUse">
<stop stop-color="#702F73"/>
<stop offset="0.4246" stop-color="#A8227D"/>
</linearGradient>
<linearGradient id="paint17_linear" x1="47.0774" y1="87.8222" x2="11.9055" y2="69.1008" gradientUnits="userSpaceOnUse">
<stop stop-color="#702F73"/>
<stop offset="0.4246" stop-color="#A8227D"/>
</linearGradient>
<linearGradient id="paint18_linear" x1="113.287" y1="5.45813" x2="135.948" y2="5.45813" gradientUnits="userSpaceOnUse">
<stop offset="0.1499" stop-color="#FF9800"/>
<stop offset="1" stop-color="#FFC107"/>
</linearGradient>
<linearGradient id="paint19_linear" x1="109.853" y1="22.0671" x2="129.767" y2="22.0671" gradientUnits="userSpaceOnUse">
<stop offset="0.1499" stop-color="#FF9800"/>
<stop offset="1" stop-color="#FFC107"/>
</linearGradient>
<linearGradient id="paint20_linear" x1="109.853" y1="38.6766" x2="141.441" y2="38.6766" gradientUnits="userSpaceOnUse">
<stop offset="0.1499" stop-color="#FF9800"/>
<stop offset="1" stop-color="#FFC107"/>
</linearGradient>
</defs>
</svg>
