<svg width="274" height="199" viewBox="0 0 274 199" fill="none" xmlns="http://www.w3.org/2000/svg">
<ellipse cx="98.5" cy="98" rx="98.5" ry="98" fill="#FFDE7A"/>
<circle cx="197" cy="95" r="77" fill="#FFC619"/>
<path d="M155.9 143.146C178.863 143.146 197.478 132.459 197.478 119.277C197.478 106.094 178.863 95.4072 155.9 95.4072C132.937 95.4072 114.321 106.094 114.321 119.277C114.321 132.459 132.937 143.146 155.9 143.146Z" fill="#EDE9FF"/>
<path d="M103.329 194.227C103.329 194.227 102.374 195.182 102.374 196.136C102.851 197.569 105.241 198.523 105.241 198.523L110.498 198.046L117.189 195.182L121.012 192.317L122.924 190.885L124.357 189.93V188.976C124.357 188.976 124.357 185.634 123.88 184.679C123.402 183.724 121.49 182.292 120.534 182.77C119.1 182.77 114.321 185.634 113.843 186.589C113.365 187.066 109.064 190.885 108.108 191.363C106.197 192.317 103.329 194.227 103.329 194.227Z" fill="#020256"/>
<path d="M113.365 186.589C113.365 186.589 113.843 186.111 114.321 185.634C116.233 186.111 118.623 188.975 118.623 188.975C118.623 189.453 111.454 196.136 107.153 196.136C102.851 196.136 103.807 193.749 103.807 193.749C103.807 193.749 106.675 191.84 107.631 191.362C108.586 190.885 112.888 187.066 113.365 186.589Z" fill="url(#paint0_linear)"/>
<path d="M124.357 188.976V190.408C123.88 190.885 114.799 196.614 113.843 197.091C112.888 197.091 109.064 199.478 106.675 198.523C104.285 198.046 102.851 197.091 102.851 195.659C102.851 195.659 103.807 198.046 107.153 197.569C110.498 197.569 114.799 195.659 115.755 194.704C116.711 194.704 124.357 190.408 124.357 188.976Z" fill="url(#paint1_linear)"/>
<path d="M78.9558 179.906C78.9558 179.906 78 180.86 78 181.815C78.4779 183.247 80.8675 184.202 80.8675 184.202L86.1245 183.725L92.8153 180.86L96.6386 177.996L98.5502 176.564L99.9839 175.609V174.654C99.9839 174.654 99.9839 171.313 99.506 170.358C99.0281 169.403 97.1165 167.971 96.1606 168.448C94.7269 168.448 89.9478 171.313 89.4699 172.267C88.992 172.745 84.6908 176.564 83.7349 177.041C81.8233 177.996 78.9558 179.906 78.9558 179.906Z" fill="#020256"/>
<path d="M88.514 172.745C88.514 172.745 88.9919 172.268 89.4699 171.791C91.3815 172.268 93.7711 175.132 93.7711 175.132C93.7711 175.61 86.6024 182.293 82.3012 182.293C78 182.293 78.9558 179.906 78.9558 179.906C78.9558 179.906 81.8233 177.997 82.7791 177.519C83.7349 176.564 88.0361 173.223 88.514 172.745Z" fill="url(#paint2_linear)"/>
<path d="M99.506 175.132V176.564C99.0281 177.041 89.9478 182.77 88.992 183.247C88.0361 183.247 84.2129 185.634 81.8233 184.68C79.4337 184.202 78 183.725 78 181.815C78 181.815 78.9558 184.202 82.3012 183.725C85.6466 183.725 89.9478 181.815 90.9036 180.861C92.3373 180.383 99.506 176.087 99.506 175.132Z" fill="url(#paint3_linear)"/>
<path d="M105.719 121.664C106.675 119.277 109.064 117.367 111.454 114.981C115.755 111.161 121.012 108.297 126.269 105.91L145.863 98.272L158.289 100.659C158.289 100.659 164.024 108.774 136.783 121.187L115.755 132.644C115.755 132.644 108.108 155.558 100.462 172.744C99.9839 174.176 99.506 175.131 98.0723 175.609C95.6827 176.563 90.4257 175.131 88.992 172.267V171.79C88.992 171.79 102.851 127.393 105.719 121.664Z" fill="url(#paint4_linear)"/>
<path d="M158.289 100.659L156.377 100.181C156.377 103.523 153.51 110.206 133.916 118.799L117.667 127.87C114.799 129.302 112.888 131.689 111.454 135.03C109.064 142.669 103.329 157.945 97.5944 170.834C97.1164 171.789 95.6827 174.176 94.249 176.086C95.6827 176.086 96.6385 176.086 97.5944 176.086C99.0281 175.608 99.506 174.176 99.9839 173.221C107.63 155.558 115.277 133.121 115.277 133.121L136.305 121.664C164.024 108.774 158.289 100.659 158.289 100.659Z" fill="#020256"/>
<path d="M146.819 103.523C146.819 104.001 143.474 110.684 142.996 112.594C142.518 114.503 151.598 118.8 148.253 120.709C144.908 122.619 134.394 129.78 131.526 135.508C128.659 141.237 114.321 185.634 114.321 185.634V186.111C115.277 188.976 121.012 190.408 123.402 189.453C124.835 188.976 125.313 187.544 125.791 186.589C134.394 170.835 141.084 146.488 141.084 146.488L162.112 135.031C171.193 130.734 175.972 129.302 179.317 125.961C186.008 119.755 183.618 108.297 183.618 108.297L153.988 91.1113L146.819 103.523Z" fill="url(#paint5_linear)"/>
<path d="M184.096 110.685L180.751 113.072C181.229 114.504 181.229 119.278 175.972 124.051C172.627 126.916 167.847 128.825 158.767 133.122L142.518 141.715C139.651 143.147 137.261 146.011 136.305 149.353C133.916 157.468 128.659 173.222 122.446 184.68C121.968 185.157 121.012 188.021 119.578 190.408C120.534 190.408 121.49 190.408 122.446 190.408C123.88 189.931 124.357 188.499 124.835 187.544C133.438 171.79 140.129 147.443 140.129 147.443L161.157 135.986C170.237 131.69 175.016 130.257 178.361 126.916C185.53 120.232 184.096 110.685 184.096 110.685Z" fill="#020256"/>
<path d="M186.486 49.1011C186.486 49.1011 162.112 32.3926 159.723 32.3926C157.333 32.3926 143.952 46.7142 143.474 55.3071C142.996 59.1262 142.996 64.3775 143.952 68.674C144.43 73.9252 145.863 78.6991 145.386 82.5182C143.952 93.4981 135.349 99.2267 141.084 103.523C144.908 106.388 152.554 108.297 153.51 114.026C153.988 116.413 154.944 118.8 157.811 118.8C165.936 118.8 180.751 118.8 183.619 114.026C186.008 110.684 183.141 95.885 185.53 88.7242C187.92 82.5182 193.177 62.4679 186.486 49.1011Z" fill="url(#paint6_linear)"/>
<path d="M183.141 114.504C179.795 118.323 165.458 119.278 157.333 119.278C154.466 119.278 153.032 116.891 153.032 114.504C152.076 108.776 144.908 106.866 140.606 104.002C139.651 103.524 139.173 102.57 138.695 101.615C138.217 103.524 138.695 104.956 140.606 106.389C144.43 109.253 152.076 111.162 153.032 116.891C153.51 119.278 154.466 121.665 157.333 121.665C165.458 121.665 179.795 121.188 183.141 116.891C184.574 115.459 184.574 112.117 184.574 108.776C184.574 111.162 184.096 113.549 183.141 114.504Z" fill="#020256"/>
<path d="M185.53 89.2021C184.574 91.5891 184.574 94.4534 184.574 97.7951C184.574 95.4082 185.052 93.0212 185.53 91.5891C186.964 87.2926 189.353 77.7448 189.353 67.7197C188.875 76.7901 186.964 85.383 185.53 89.2021Z" fill="#020256"/>
<path d="M182.185 93.4985C185.052 86.815 188.876 65.3326 182.185 52.4432L185.53 49.5789C192.221 62.4683 188.398 82.5186 185.53 89.6794C182.663 96.3628 186.964 110.684 183.618 114.981C183.141 115.458 182.185 115.936 181.229 116.413C182.185 110.207 179.795 99.2271 182.185 93.4985Z" fill="url(#paint7_linear)"/>
<path d="M155.422 40.5084C155.422 40.5084 150.643 49.5787 149.209 74.4029C149.209 74.4029 148.253 61.9908 148.253 54.3526C148.253 50.0561 153.032 41.9406 153.988 39.5536C154.944 37.6441 155.422 40.5084 155.422 40.5084Z" fill="url(#paint8_linear)"/>
<path d="M164.502 60.0814C162.59 63.9005 156.855 77.2674 154.944 95.8854C154.466 101.614 152.554 107.82 152.554 114.026C146.819 111.162 143.474 109.252 140.606 104.001C140.606 103.524 140.129 103.524 140.129 103.046C141.562 99.2272 147.297 92.0663 148.253 89.202C149.687 82.996 148.731 62.9457 151.12 53.398C152.076 48.6241 154.466 42.4181 153.988 36.6895C156.855 34.7799 158.767 32.8704 159.723 32.8704C161.157 32.8704 169.759 37.1668 169.759 43.3729C169.281 52.4432 166.414 56.7397 164.502 60.0814Z" fill="url(#paint9_linear)"/>
<path d="M147.775 90.1565C149.209 83.9504 149.209 63.4228 151.598 53.875C152.554 49.1012 154.944 42.8951 154.466 37.1665H155.9C153.988 42.8951 153.988 49.1012 153.032 53.875C150.643 63.9002 150.643 84.4278 149.209 90.1565C148.731 93.0208 143.952 99.7042 142.04 103.523C142.04 104.001 142.518 104.001 142.518 104.478C145.386 109.252 148.253 111.161 153.032 113.548V114.026C147.297 111.161 143.952 109.252 141.084 104.001C141.084 103.523 140.606 103.523 140.606 103.046C142.04 99.7042 146.819 93.0208 147.775 90.1565Z" fill="url(#paint10_linear)"/>
<path d="M166.892 31.438C167.847 31.438 168.803 34.7797 167.847 39.5536C167.847 40.5083 167.369 41.4631 167.369 42.4179C166.892 43.8501 165.458 47.6691 163.546 49.1013C161.635 50.5335 157.333 51.0109 155.422 50.0561C153.51 49.1013 153.032 45.2822 153.51 43.8501C154.944 40.031 153.51 36.6892 153.51 36.6892C153.51 36.6892 165.458 31.438 166.892 31.438Z" fill="#FFA77E"/>
<path d="M165.936 40.9856C167.369 39.5534 167.847 38.1213 168.803 37.1665C168.803 37.6439 168.325 37.6439 168.325 38.1213C167.847 39.0761 167.369 40.9856 166.414 42.4178C164.024 45.2821 158.289 48.6238 154.944 48.1464C154.944 47.669 154.466 47.1916 154.466 46.2369C154.466 45.2821 154.466 44.3273 154.466 44.3273C156.855 44.3273 163.068 43.8499 165.936 40.9856Z" fill="#F68F68"/>
<path d="M167.847 37.1665C167.847 37.1665 167.847 39.5534 168.325 41.463C168.803 44.3273 169.759 49.1012 165.458 57.6941C158.289 71.5383 157.333 82.5182 157.333 82.5182C157.333 82.5182 163.546 68.1966 167.37 64.8549C170.715 61.5132 175.972 46.2368 172.149 40.9856C168.325 35.7343 165.458 34.7795 165.458 34.7795L167.847 37.1665Z" fill="url(#paint11_linear)"/>
<path d="M166.892 64.8554C169.759 61.991 173.582 50.5338 172.626 43.8503C175.016 50.0564 169.759 63.4232 166.414 66.2875C162.59 69.6292 156.377 84.9056 156.377 84.9056C156.377 84.9056 156.377 85.383 156.855 82.5187C158.767 77.7448 164.502 67.2423 166.892 64.8554Z" fill="#D2D4F8"/>
<path d="M166.892 64.8554C169.759 61.991 173.582 50.5338 172.626 43.8503C175.016 50.0564 169.759 63.4232 166.414 66.2875C162.59 69.6292 156.377 84.9056 156.377 84.9056C156.377 84.9056 156.377 85.383 156.855 82.5187C158.767 77.7448 164.502 67.2423 166.892 64.8554Z" fill="url(#paint12_linear)"/>
<path d="M101.418 111.638L140.606 134.553C141.562 135.03 142.996 135.03 143.952 134.553L166.892 121.186C167.369 120.709 167.847 120.709 167.847 120.231V122.141C167.847 122.618 167.369 123.096 166.892 123.096L143.952 136.463C142.996 136.94 141.562 136.94 140.606 136.463L101.418 113.548C100.94 113.071 100.94 113.071 100.94 112.593V110.684C100.462 110.684 100.94 111.161 101.418 111.638Z" fill="url(#paint13_linear)"/>
<path d="M101.418 109.729L124.357 96.3619C125.313 95.8846 126.747 95.8846 127.703 96.3619L166.892 119.277C167.847 119.754 167.847 120.709 166.892 121.186L143.952 134.553C142.996 135.03 141.562 135.03 140.606 134.553L101.418 111.638C100.462 111.161 100.462 110.206 101.418 109.729Z" fill="url(#paint14_linear)"/>
<path d="M134.871 108.296L146.341 114.98C146.819 115.457 147.775 115.457 148.253 114.98L153.032 112.115C153.51 111.638 153.51 111.161 153.032 111.161L141.084 104.477C140.606 104 139.651 104 139.173 104.477L134.394 107.342C133.916 107.342 133.916 108.296 134.871 108.296Z" fill="url(#paint15_linear)"/>
<path d="M152.554 111.161L141.084 104.477C140.606 104 139.651 104 139.173 104.477L134.394 107.341L133.916 107.819C133.916 107.819 133.916 107.341 134.394 107.341L139.173 104.477C139.651 104 140.606 104 141.084 104.477L152.554 111.161C153.032 111.161 153.032 111.638 152.554 111.161C153.032 111.638 153.032 111.161 152.554 111.161Z" fill="#020256"/>
<path d="M138.695 130.734L106.675 112.116C106.197 111.638 106.197 111.161 106.675 110.684L120.534 102.568C121.012 102.091 121.968 102.091 122.924 102.568L154.944 121.186C155.422 121.663 155.422 122.141 154.944 122.618L141.084 130.734C140.606 131.211 139.651 131.211 138.695 130.734Z" fill="url(#paint16_linear)"/>
<path d="M154.944 121.663L122.924 103.045C122.446 102.568 121.49 102.568 120.534 103.045L106.675 111.161C106.197 111.161 106.197 111.638 106.197 111.638C106.197 111.161 106.197 111.161 106.675 110.684L120.534 102.568C121.012 102.091 121.968 102.091 122.924 102.568L154.944 121.663C155.422 121.663 155.422 122.141 155.422 122.141L154.944 121.663Z" fill="#020256"/>
<path d="M110.976 113.071L108.586 111.639V111.162L112.41 112.116V112.594L110.976 113.071Z" fill="#020256"/>
<path d="M114.321 114.98L111.932 113.548V113.071L115.277 114.026V114.503L114.321 114.98Z" fill="#020256"/>
<path d="M117.667 116.89L115.277 115.458V114.981L118.622 115.936V116.413L117.667 116.89Z" fill="#020256"/>
<path d="M121.012 118.8L118.145 117.368V116.89L121.968 117.845L121.012 118.8Z" fill="#020256"/>
<path d="M123.879 120.71L121.49 119.278V118.8L124.835 119.755L123.879 120.71Z" fill="#020256"/>
<path d="M127.225 122.619L124.835 121.187V120.709L128.181 121.664L127.225 122.619Z" fill="#020256"/>
<path d="M130.57 124.051L128.181 122.619L131.526 123.573L130.57 124.051Z" fill="#020256"/>
<path d="M133.438 125.961L131.048 124.529L134.871 125.484L133.438 125.961Z" fill="#020256"/>
<path d="M136.783 127.87L134.394 126.438L137.739 126.915V127.393L136.783 127.87Z" fill="#020256"/>
<path d="M140.129 129.78L137.739 128.348L141.084 128.826V129.303L140.129 129.78Z" fill="#020256"/>
<path d="M110.976 112.594L108.586 111.161L109.542 110.684L112.41 112.116L110.976 112.594Z" fill="white"/>
<path d="M114.321 114.503L111.932 113.071L112.888 112.593L115.277 114.025L114.321 114.503Z" fill="white"/>
<path d="M117.667 116.413L115.277 114.981L116.233 114.503L118.622 115.936L117.667 116.413Z" fill="white"/>
<path d="M121.012 118.322L118.145 116.89L119.578 116.413L121.968 117.845L121.012 118.322Z" fill="white"/>
<path d="M123.879 120.232L121.49 118.8L122.446 118.323L124.835 119.755L123.879 120.232Z" fill="white"/>
<path d="M127.225 122.141L124.835 120.709L125.791 120.232L128.181 121.664L127.225 122.141Z" fill="white"/>
<path d="M130.57 124.051L128.181 122.618L129.137 122.141L131.526 123.573L130.57 124.051Z" fill="white"/>
<path d="M133.438 125.961L131.048 124.529L132.482 124.051L134.871 125.483L133.438 125.961Z" fill="white"/>
<path d="M136.783 127.87L134.394 126.438L135.349 125.483L137.739 126.916L136.783 127.87Z" fill="white"/>
<path d="M140.129 129.779L137.739 128.347L138.695 127.393L141.084 128.825L140.129 129.779Z" fill="white"/>
<path d="M117.189 108.773L115.277 107.819V107.341L118.622 107.819L117.189 108.773Z" fill="#020256"/>
<path d="M120.056 110.206L118.145 109.251V108.773L121.49 109.251V109.728L120.056 110.206Z" fill="#020256"/>
<path d="M122.446 112.115L120.534 110.683H123.879V111.16L122.446 112.115Z" fill="#020256"/>
<path d="M125.313 113.547L123.402 112.593V112.115L126.747 112.593L125.313 113.547Z" fill="#020256"/>
<path d="M127.703 114.98L126.269 114.025V113.547L129.614 114.025L127.703 114.98Z" fill="#020256"/>
<path d="M130.57 116.411L128.659 115.457H132.004V115.934L130.57 116.411Z" fill="#020256"/>
<path d="M133.438 118.321L131.526 116.889H134.871V117.367L133.438 118.321Z" fill="#020256"/>
<path d="M135.827 119.753L133.916 118.799V118.321L137.261 118.799L135.827 119.753Z" fill="#020256"/>
<path d="M138.695 121.186L136.783 120.231V119.754L140.128 120.231L138.695 121.186Z" fill="#020256"/>
<path d="M141.562 122.618L139.651 121.663H142.996V122.14L141.562 122.618Z" fill="#020256"/>
<path d="M143.952 124.527L142.04 123.095H145.386V123.573L143.952 124.527Z" fill="#020256"/>
<path d="M146.819 125.96L144.908 125.005V124.528L148.253 125.005L146.819 125.96Z" fill="#020256"/>
<path d="M117.189 108.774L115.277 107.341L116.711 106.387L118.622 107.819L117.189 108.774Z" fill="white"/>
<path d="M120.056 110.205L118.145 108.773L119.578 108.296L121.49 109.251L120.056 110.205Z" fill="white"/>
<path d="M122.446 111.638L120.534 110.683L121.968 109.728L123.879 110.683L122.446 111.638Z" fill="white"/>
<path d="M125.313 113.07L123.402 112.115L124.835 111.161L126.747 112.593L125.313 113.07Z" fill="white"/>
<path d="M127.703 114.979L126.269 113.547L127.703 113.07L129.614 114.025L127.703 114.979Z" fill="white"/>
<path d="M130.57 116.412L128.659 115.457L130.092 114.502L132.004 115.457L130.57 116.412Z" fill="white"/>
<path d="M133.438 117.844L131.526 116.889L132.96 115.935L134.871 116.889L133.438 117.844Z" fill="white"/>
<path d="M135.827 119.276L133.916 118.321L135.349 117.367L137.261 118.799L135.827 119.276Z" fill="white"/>
<path d="M138.695 121.185L136.783 119.753L138.217 119.276L140.128 120.231L138.695 121.185Z" fill="white"/>
<path d="M141.562 122.618L139.651 121.663L141.084 120.708L142.996 121.663L141.562 122.618Z" fill="white"/>
<path d="M143.952 124.05L142.04 123.095L143.474 122.141L145.386 123.095L143.952 124.05Z" fill="white"/>
<path d="M146.819 125.483L144.908 124.528L146.341 123.573L148.253 125.005L146.819 125.483Z" fill="white"/>
<path d="M115.277 110.206L113.365 108.774L117.189 109.251V109.729L115.277 110.206Z" fill="#020256"/>
<path d="M118.145 112.115L116.233 110.683H119.578V111.16L118.145 112.115Z" fill="#020256"/>
<path d="M121.012 113.547L119.1 112.593V112.115L122.446 112.593L121.012 113.547Z" fill="#020256"/>
<path d="M123.402 114.98L121.49 114.025V113.548L124.835 114.025L123.402 114.98Z" fill="#020256"/>
<path d="M126.269 116.412L124.357 115.457H127.703V115.934L126.269 116.412Z" fill="#020256"/>
<path d="M128.659 117.844L126.747 116.889H130.092V117.367L128.659 117.844Z" fill="#020256"/>
<path d="M131.526 119.754L129.614 118.322H132.96V118.799L131.526 119.754Z" fill="#020256"/>
<path d="M133.916 121.186L132.004 120.231V119.754L135.349 120.231L133.916 121.186Z" fill="#020256"/>
<path d="M136.783 122.619L134.871 121.664V121.187L138.217 121.664L136.783 122.619Z" fill="#020256"/>
<path d="M139.651 124.05L137.739 123.096H141.084V123.573L139.651 124.05Z" fill="#020256"/>
<path d="M144.43 127.392L140.129 124.528L145.863 125.96V126.437L144.43 127.392Z" fill="#020256"/>
<path d="M115.277 110.206L113.365 108.774L114.799 107.819L117.189 109.251L115.277 110.206Z" fill="white"/>
<path d="M118.145 111.638L116.233 110.683L117.667 109.729L119.578 110.683L118.145 111.638Z" fill="white"/>
<path d="M121.012 113.07L119.1 112.115L120.534 111.161L122.446 112.593L121.012 113.07Z" fill="white"/>
<path d="M123.402 114.98L121.49 113.548L122.924 113.071L124.835 114.026L123.402 114.98Z" fill="white"/>
<path d="M126.269 116.412L124.357 115.457L125.791 114.502L127.703 115.457L126.269 116.412Z" fill="white"/>
<path d="M128.659 117.844L126.747 116.889L128.181 115.935L130.092 116.889L128.659 117.844Z" fill="white"/>
<path d="M131.526 119.277L129.614 118.322L131.048 117.367L132.96 118.322L131.526 119.277Z" fill="white"/>
<path d="M133.916 120.709L132.004 119.754L133.438 118.799L135.349 120.231L133.916 120.709Z" fill="white"/>
<path d="M136.783 122.618L134.871 121.186L136.305 120.708L138.217 121.663L136.783 122.618Z" fill="white"/>
<path d="M139.651 124.051L137.739 123.096L139.173 122.141L141.084 123.096L139.651 124.051Z" fill="white"/>
<path d="M144.43 126.915L140.129 124.528L141.562 123.573L145.863 125.96L144.43 126.915Z" fill="white"/>
<path d="M116.711 113.547L114.799 112.593V112.115L118.145 112.593L116.711 113.547Z" fill="#020256"/>
<path d="M119.1 114.98L117.667 114.025H120.534V114.503L119.1 114.98Z" fill="#020256"/>
<path d="M121.968 116.89L120.056 115.458H123.402V115.935L121.968 116.89Z" fill="#020256"/>
<path d="M124.357 118.321L122.446 116.889H125.791V117.367L124.357 118.321Z" fill="#020256"/>
<path d="M127.225 119.753L125.313 118.799V118.321L128.659 118.799L127.225 119.753Z" fill="#020256"/>
<path d="M130.092 121.186L128.181 120.231V119.754L131.526 120.231V120.709L130.092 121.186Z" fill="#020256"/>
<path d="M132.482 123.095L130.57 121.663H133.916V122.14L132.482 123.095Z" fill="#020256"/>
<path d="M135.349 124.527L133.438 123.573V123.095L136.783 123.573L135.349 124.527Z" fill="#020256"/>
<path d="M137.739 125.96L136.305 125.005V124.528L139.173 125.005L137.739 125.96Z" fill="#020256"/>
<path d="M142.04 128.347L138.695 126.437V125.96L143.952 127.392V127.87L142.04 128.347Z" fill="#020256"/>
<path d="M113.843 112.116L110.976 110.206L115.277 111.161L113.843 112.116Z" fill="#020256"/>
<path d="M116.711 113.548L114.799 112.116L116.233 111.638L118.145 112.593L116.711 113.548Z" fill="white"/>
<path d="M119.1 114.98L117.667 114.026L119.1 113.071L120.534 114.026L119.1 114.98Z" fill="white"/>
<path d="M121.968 116.412L120.056 115.458L121.49 114.503L123.402 115.458L121.968 116.412Z" fill="white"/>
<path d="M124.357 117.844L122.446 116.889L123.879 115.935L125.791 116.889L124.357 117.844Z" fill="white"/>
<path d="M127.225 119.276L125.313 118.321L126.747 117.367L128.659 118.799L127.225 119.276Z" fill="white"/>
<path d="M130.092 121.186L128.181 119.754L129.614 119.277L131.526 120.232L130.092 121.186Z" fill="white"/>
<path d="M132.482 122.618L130.57 121.663L132.004 120.708L133.916 121.663L132.482 122.618Z" fill="white"/>
<path d="M135.349 124.05L133.438 123.095L134.871 122.141L136.783 123.573L135.349 124.05Z" fill="white"/>
<path d="M137.739 125.96L136.305 124.528L137.739 124.051L139.173 125.006L137.739 125.96Z" fill="white"/>
<path d="M142.04 128.347L138.695 125.96L140.128 125.482L143.952 127.392L142.04 128.347Z" fill="white"/>
<path d="M113.843 111.638L110.976 110.206L112.41 109.251L115.277 111.161L113.843 111.638Z" fill="white"/>
<path d="M128.181 111.638L124.357 109.729V109.251L129.614 110.684L128.181 111.638Z" fill="#020256"/>
<path d="M130.57 113.071L128.659 112.116H132.004V112.594L130.57 113.071Z" fill="#020256"/>
<path d="M133.438 114.98L131.526 113.547H134.871V114.025L133.438 114.98Z" fill="#020256"/>
<path d="M135.827 116.412L133.916 115.457V114.98L137.261 115.457L135.827 116.412Z" fill="#020256"/>
<path d="M138.695 117.844L136.783 116.889V116.412L140.129 116.889L138.695 117.844Z" fill="#020256"/>
<path d="M141.084 119.277L139.173 118.322V117.845L142.518 118.322L141.084 119.277Z" fill="#020256"/>
<path d="M143.952 120.709L142.04 119.754H145.386V120.231L143.952 120.709Z" fill="#020256"/>
<path d="M146.341 122.618L144.908 121.186H147.775V121.663L146.341 122.618Z" fill="#020256"/>
<path d="M149.209 124.051L147.297 123.096V122.619L150.643 123.096L149.209 124.051Z" fill="#020256"/>
<path d="M128.181 111.638L124.357 109.251L125.791 108.774L129.614 110.683L128.181 111.638Z" fill="white"/>
<path d="M130.57 113.07L128.659 112.115L130.092 111.161L132.004 112.115L130.57 113.07Z" fill="white"/>
<path d="M133.438 114.503L131.526 113.548L132.96 112.593L134.871 113.548L133.438 114.503Z" fill="white"/>
<path d="M135.827 115.935L133.916 114.98L135.349 114.025L137.261 115.458L135.827 115.935Z" fill="white"/>
<path d="M138.695 117.367L136.783 116.412L138.217 115.457L140.129 116.889L138.695 117.367Z" fill="white"/>
<path d="M141.084 119.277L139.173 117.845L140.606 117.367L142.518 118.322L141.084 119.277Z" fill="white"/>
<path d="M143.952 120.709L142.04 119.754L143.474 118.799L145.386 119.754L143.952 120.709Z" fill="white"/>
<path d="M146.341 122.141L144.908 121.186L146.341 120.231L147.775 121.186L146.341 122.141Z" fill="white"/>
<path d="M149.209 123.573L147.297 122.618L148.731 121.663L150.643 123.095L149.209 123.573Z" fill="white"/>
<path d="M129.136 109.729L126.747 108.297V107.819L131.048 108.297V108.774L129.136 109.729Z" fill="#020256"/>
<path d="M132.482 111.638L130.092 110.206V109.729L134.394 110.206V110.683L132.482 111.638Z" fill="#020256"/>
<path d="M146.341 119.276L133.916 112.115L148.253 118.321L146.341 119.276Z" fill="#020256"/>
<path d="M151.598 122.618L146.819 119.754L153.51 121.186V121.663L151.598 122.618Z" fill="#020256"/>
<path d="M121.49 104.955L120.056 104H122.446L121.49 104.955Z" fill="#020256"/>
<path d="M121.968 107.341L120.534 106.387V105.909L122.924 106.387L121.968 107.341Z" fill="#020256"/>
<path d="M125.791 107.342L124.357 106.387H126.747V106.864L125.791 107.342Z" fill="#020256"/>
<path d="M123.879 106.387L121.968 105.432V104.955L124.835 105.432L123.879 106.387Z" fill="#020256"/>
<path d="M129.136 109.252L126.747 107.82L128.659 106.865L131.048 108.297L129.136 109.252Z" fill="white"/>
<path d="M132.482 111.161L130.092 109.729L132.004 108.774L134.394 110.206L132.482 111.161Z" fill="white"/>
<path d="M146.341 119.276L133.916 112.115L135.827 111.161L148.253 118.321L146.341 119.276Z" fill="white"/>
<path d="M151.598 122.618L146.819 119.754L148.731 118.799L153.51 121.186L151.598 122.618Z" fill="white"/>
<path d="M121.49 104.478L120.056 104L121.012 103.045L122.446 104L121.49 104.478Z" fill="white"/>
<path d="M121.968 106.864L120.534 105.91L121.49 105.432L122.924 106.387L121.968 106.864Z" fill="white"/>
<path d="M125.791 107.342L124.357 106.387L125.313 105.432L126.747 106.387L125.791 107.342Z" fill="white"/>
<path d="M123.879 105.91L121.968 104.955L123.402 104.478L124.835 105.432L123.879 105.91Z" fill="white"/>
<path d="M126.269 93.9753C126.269 93.9753 124.357 96.3622 123.88 96.8396C123.88 97.317 124.357 98.7492 123.402 100.181C122.446 101.613 120.534 104.955 119.578 104.478C118.622 104.478 121.012 100.659 121.012 99.7039C121.012 99.2265 114.799 107.82 113.843 107.82C113.365 107.82 109.064 103.523 109.064 103.046C109.064 102.568 108.108 100.181 109.542 98.2718C110.976 96.3622 114.799 93.4979 116.233 93.0205C118.622 93.0205 120.534 91.111 121.012 90.1562C121.49 89.2014 124.357 89.2014 124.835 89.6788C124.835 89.6788 127.225 92.0657 126.269 93.9753Z" fill="#FFA77E"/>
<path d="M119.1 91.1106C119.578 90.1558 120.534 90.1558 121.968 88.7237C125.791 84.9046 130.092 79.6533 132.482 75.3568C137.739 65.8091 141.084 56.2614 142.996 46.7136C143.952 42.8945 146.341 40.5076 149.209 39.0754C149.687 40.0302 149.209 41.4624 149.687 41.9398C146.341 46.2362 143.474 51.4875 142.996 55.3066C142.518 61.99 144.43 70.583 144.908 77.2664C137.739 92.0654 135.349 90.6332 125.791 97.3166C122.924 99.2262 118.623 93.0202 119.1 91.1106Z" fill="url(#paint17_linear)"/>
<path d="M144.43 70.5835C143.474 72.493 142.518 73.9252 142.04 74.88C135.827 87.292 133.438 89.679 124.357 95.885L126.269 97.3172C135.827 90.6338 138.217 92.0659 145.386 77.2669C144.908 74.88 144.43 72.9704 144.43 70.5835Z" fill="url(#paint18_linear)"/>
<path d="M155.9 108.298C155.9 108.298 134.872 108.775 129.137 114.504C128.659 114.981 129.137 115.459 129.614 114.981C131.526 114.504 135.827 113.549 137.261 113.072C137.739 113.072 137.739 113.549 137.261 113.549C136.783 114.026 136.305 114.027 136.305 114.504C136.783 114.981 139.173 119.278 141.562 119.755C143.952 120.233 159.245 112.117 161.157 112.594L155.9 108.298Z" fill="#FFA77E"/>
<path d="M153.032 108.775C153.032 107.82 153.988 106.865 154.466 106.865C160.679 104.956 169.759 98.2721 171.193 96.8399C172.627 95.8852 174.06 94.453 174.538 93.0209C177.406 85.3827 177.406 73.9254 176.45 70.1063C175.016 65.8098 171.671 51.9656 182.185 48.6239C183.141 48.1465 184.096 48.1465 185.052 48.1465C185.53 48.1465 186.964 48.6239 186.964 49.1013C191.265 52.443 195.566 81.5636 185.53 99.2269C185.53 99.2269 174.06 110.684 155.422 116.413C154.944 116.413 154.466 116.413 154.466 115.935C153.032 114.026 152.554 111.162 153.032 108.775Z" fill="url(#paint19_linear)"/>
<path d="M169.281 98.2717C170.715 97.3169 173.582 93.9752 174.06 92.5431C176.928 84.9049 176.928 70.5833 175.494 66.7642L176.45 70.5833C177.884 74.4023 177.406 85.3823 174.538 93.4978C174.06 94.93 172.627 96.3622 171.193 97.3169C169.759 98.7491 162.112 104 155.9 106.387C161.635 103.523 167.847 99.2265 169.281 98.2717Z" fill="url(#paint20_linear)"/>
<path d="M136.783 108.297C136.305 107.342 135.827 105.91 134.871 105.433L95.6827 82.9956C95.2048 82.5182 93.7711 82.9956 93.2932 83.473C92.8153 83.9504 93.7711 83.9504 93.7711 84.4278L101.418 107.342C101.896 108.774 101.896 110.207 103.807 111.161L107.631 113.548L109.064 117.367L133.438 128.825L134.871 129.302L142.518 134.553C142.996 135.031 143.952 134.553 144.43 134.076C144.908 133.599 144.908 133.121 144.43 133.121L136.783 108.297Z" fill="url(#paint21_linear)"/>
<path d="M134.394 129.302L135.827 133.599L134.871 133.121L133.916 129.302H134.394Z" fill="url(#paint22_linear)"/>
<path d="M135.827 108.774C135.349 107.819 134.871 106.387 133.916 105.91L94.7269 83.4728C94.249 82.9954 93.2931 82.9954 92.8152 83.9501C92.3373 84.4275 92.3373 84.9049 92.8152 85.3823L100.462 108.297C100.94 109.729 101.418 111.161 102.851 112.116L106.675 113.548L108.108 117.367L135.349 133.121L133.916 129.302L142.04 134.076C142.518 134.553 142.996 134.076 143.474 134.076C143.952 133.598 143.952 133.121 143.474 133.121L135.827 108.774Z" fill="url(#paint23_linear)"/>
<path d="M172.149 31.438C171.671 33.8249 170.715 36.6892 168.803 38.1214C164.98 41.9405 158.289 47.6691 153.032 46.237C149.209 45.2822 146.819 31.9154 148.253 24.7545C149.687 17.5937 160.679 11.8651 164.024 12.8199C166.892 13.7746 170.715 13.7746 172.149 18.0711C173.104 21.4128 172.627 27.1415 172.149 31.438Z" fill="#FFA77E"/>
<path d="M163.068 22.8451C163.068 22.8451 162.112 28.0963 161.635 30.0059C161.635 30.0059 163.068 30.4833 164.024 31.9154C164.98 33.3476 165.458 35.2571 165.458 35.2571L167.369 34.3024L168.803 32.8702L172.149 30.4833C172.627 26.1868 174.06 17.5938 173.104 14.7295L169.281 16.1617L163.068 22.8451Z" fill="#020256"/>
<path d="M172.626 32.8693C171.671 35.2563 169.759 36.6884 168.803 36.211C167.369 35.7337 167.369 33.3467 167.847 30.9598C168.803 28.5729 170.715 27.1407 171.671 27.6181C173.104 28.5729 173.582 30.4824 172.626 32.8693Z" fill="#FFA77E"/>
<path d="M156.377 9.95506C149.687 11.3872 148.731 13.7742 147.297 15.2063C145.386 17.5933 142.518 19.0254 139.173 19.0254H138.695C139.651 20.4576 140.606 21.8897 142.518 22.8445C143.952 23.3219 145.386 23.7993 146.341 23.7993C146.341 23.7993 144.908 24.2767 142.996 24.2767C145.386 26.6636 149.209 28.5732 154.466 27.6184C165.458 26.1862 164.502 22.8445 171.671 20.4576C171.671 20.4576 172.626 19.5028 173.582 17.1159C174.06 12.8194 168.325 7.09074 156.377 9.95506Z" fill="#020256"/>
<path d="M156.377 9.95506C149.687 11.3872 148.731 13.7742 147.297 15.2063C145.386 17.5933 142.518 19.0254 139.173 19.0254H138.695C139.651 20.4576 140.606 21.8897 142.518 22.8445C143.952 23.3219 145.386 23.7993 146.341 23.7993C146.341 23.7993 144.908 24.2767 142.996 24.2767C145.386 26.6636 149.209 28.5732 154.466 27.6184C165.458 26.1862 164.502 22.8445 171.671 20.4576C171.671 20.4576 172.626 19.5028 173.582 17.1159C174.06 12.8194 168.325 7.09074 156.377 9.95506Z" fill="#020256"/>
<defs>
<linearGradient id="paint0_linear" x1="103.43" y1="191.096" x2="118.687" y2="191.096" gradientUnits="userSpaceOnUse">
<stop stop-color="#2F2D8F"/>
<stop offset="0.3923" stop-color="#181772"/>
<stop offset="0.7562" stop-color="#08085D"/>
<stop offset="1" stop-color="#020256"/>
</linearGradient>
<linearGradient id="paint1_linear" x1="102.729" y1="194.076" x2="124.364" y2="194.076" gradientUnits="userSpaceOnUse">
<stop stop-color="#2F2D8F"/>
<stop offset="0.3923" stop-color="#181772"/>
<stop offset="0.7562" stop-color="#08085D"/>
<stop offset="1" stop-color="#020256"/>
</linearGradient>
<linearGradient id="paint2_linear" x1="78.7632" y1="177.039" x2="94.0201" y2="177.039" gradientUnits="userSpaceOnUse">
<stop stop-color="#2F2D8F"/>
<stop offset="0.3923" stop-color="#181772"/>
<stop offset="0.7562" stop-color="#08085D"/>
<stop offset="1" stop-color="#020256"/>
</linearGradient>
<linearGradient id="paint3_linear" x1="78.0624" y1="180.02" x2="99.6977" y2="180.02" gradientUnits="userSpaceOnUse">
<stop stop-color="#2F2D8F"/>
<stop offset="0.3923" stop-color="#181772"/>
<stop offset="0.7562" stop-color="#08085D"/>
<stop offset="1" stop-color="#020256"/>
</linearGradient>
<linearGradient id="paint4_linear" x1="88.8491" y1="137.165" x2="158.641" y2="137.165" gradientUnits="userSpaceOnUse">
<stop stop-color="#2F2D8F"/>
<stop offset="0.3923" stop-color="#181772"/>
<stop offset="0.7562" stop-color="#08085D"/>
<stop offset="1" stop-color="#020256"/>
</linearGradient>
<linearGradient id="paint5_linear" x1="114.012" y1="140.58" x2="183.524" y2="140.58" gradientUnits="userSpaceOnUse">
<stop stop-color="#2F2D8F"/>
<stop offset="0.3923" stop-color="#181772"/>
<stop offset="0.7562" stop-color="#08085D"/>
<stop offset="1" stop-color="#020256"/>
</linearGradient>
<linearGradient id="paint6_linear" x1="133.431" y1="71.3407" x2="187.682" y2="81.1398" gradientUnits="userSpaceOnUse">
<stop stop-color="white"/>
<stop offset="0.5712" stop-color="#DEEAFE"/>
<stop offset="1" stop-color="#C2D8FE"/>
</linearGradient>
<linearGradient id="paint7_linear" x1="174.037" y1="89.3457" x2="201.016" y2="70.1334" gradientUnits="userSpaceOnUse">
<stop stop-color="white"/>
<stop offset="0.0298241" stop-color="#FBFCFF"/>
<stop offset="0.2496" stop-color="#E2ECFF"/>
<stop offset="0.4788" stop-color="#D0E1FE"/>
<stop offset="0.7214" stop-color="#C5DAFE"/>
<stop offset="1" stop-color="#C2D8FE"/>
</linearGradient>
<linearGradient id="paint8_linear" x1="152.764" y1="55.7666" x2="178.289" y2="31.0438" gradientUnits="userSpaceOnUse">
<stop stop-color="white"/>
<stop offset="0.0632815" stop-color="#F7FAFF"/>
<stop offset="0.2504" stop-color="#E2ECFF"/>
<stop offset="0.2516" stop-color="#E2ECFF"/>
<stop offset="0.4798" stop-color="#D0E1FE"/>
<stop offset="0.7218" stop-color="#C5DAFE"/>
<stop offset="1" stop-color="#C2D8FE"/>
</linearGradient>
<linearGradient id="paint9_linear" x1="140.577" y1="73.6201" x2="169.857" y2="73.6201" gradientUnits="userSpaceOnUse">
<stop offset="0.1499" stop-color="#FF9800"/>
<stop offset="1" stop-color="#FFC107"/>
</linearGradient>
<linearGradient id="paint10_linear" x1="141.327" y1="84.4937" x2="173.971" y2="61.2459" gradientUnits="userSpaceOnUse">
<stop stop-color="white"/>
<stop offset="0.0298241" stop-color="#FBFCFF"/>
<stop offset="0.2496" stop-color="#E2ECFF"/>
<stop offset="0.4788" stop-color="#D0E1FE"/>
<stop offset="0.7214" stop-color="#C5DAFE"/>
<stop offset="1" stop-color="#C2D8FE"/>
</linearGradient>
<linearGradient id="paint11_linear" x1="158.127" y1="61.3022" x2="183.651" y2="36.5794" gradientUnits="userSpaceOnUse">
<stop stop-color="white"/>
<stop offset="0.0298241" stop-color="#FBFCFF"/>
<stop offset="0.2496" stop-color="#E2ECFF"/>
<stop offset="0.4788" stop-color="#D0E1FE"/>
<stop offset="0.7214" stop-color="#C5DAFE"/>
<stop offset="1" stop-color="#C2D8FE"/>
</linearGradient>
<linearGradient id="paint12_linear" x1="156.765" y1="70.0536" x2="180.42" y2="53.2069" gradientUnits="userSpaceOnUse">
<stop stop-color="white"/>
<stop offset="0.0298241" stop-color="#FBFCFF"/>
<stop offset="0.2496" stop-color="#E2ECFF"/>
<stop offset="0.4788" stop-color="#D0E1FE"/>
<stop offset="0.7214" stop-color="#C5DAFE"/>
<stop offset="1" stop-color="#C2D8FE"/>
</linearGradient>
<linearGradient id="paint13_linear" x1="100.577" y1="123.539" x2="167.889" y2="123.539" gradientUnits="userSpaceOnUse">
<stop offset="0.1499" stop-color="#FF9800"/>
<stop offset="1" stop-color="#FFC107"/>
</linearGradient>
<linearGradient id="paint14_linear" x1="123.473" y1="122.916" x2="155.155" y2="100.353" gradientUnits="userSpaceOnUse">
<stop stop-color="white"/>
<stop offset="0.0298241" stop-color="#FBFCFF"/>
<stop offset="0.2496" stop-color="#E2ECFF"/>
<stop offset="0.4788" stop-color="#D0E1FE"/>
<stop offset="0.7214" stop-color="#C5DAFE"/>
<stop offset="1" stop-color="#C2D8FE"/>
</linearGradient>
<linearGradient id="paint15_linear" x1="134.283" y1="109.808" x2="153.004" y2="109.808" gradientUnits="userSpaceOnUse">
<stop offset="0.1499" stop-color="#FF9800"/>
<stop offset="1" stop-color="#FFC107"/>
</linearGradient>
<linearGradient id="paint16_linear" x1="106.256" y1="116.958" x2="155.352" y2="116.958" gradientUnits="userSpaceOnUse">
<stop offset="0.1499" stop-color="#FF9800"/>
<stop offset="1" stop-color="#FFC107"/>
</linearGradient>
<linearGradient id="paint17_linear" x1="136.818" y1="68.218" x2="155.404" y2="74.7528" gradientUnits="userSpaceOnUse">
<stop stop-color="white"/>
<stop offset="0.0298241" stop-color="#FBFCFF"/>
<stop offset="0.2496" stop-color="#E2ECFF"/>
<stop offset="0.4788" stop-color="#D0E1FE"/>
<stop offset="0.7214" stop-color="#C5DAFE"/>
<stop offset="1" stop-color="#C2D8FE"/>
</linearGradient>
<linearGradient id="paint18_linear" x1="124.131" y1="97.8829" x2="156.018" y2="63.6665" gradientUnits="userSpaceOnUse">
<stop stop-color="white"/>
<stop offset="0.0298241" stop-color="#FBFCFF"/>
<stop offset="0.2496" stop-color="#E2ECFF"/>
<stop offset="0.4788" stop-color="#D0E1FE"/>
<stop offset="0.7214" stop-color="#C5DAFE"/>
<stop offset="1" stop-color="#C2D8FE"/>
</linearGradient>
<linearGradient id="paint19_linear" x1="144.578" y1="94.9519" x2="232.811" y2="52.2261" gradientUnits="userSpaceOnUse">
<stop stop-color="white"/>
<stop offset="0.0298241" stop-color="#FBFCFF"/>
<stop offset="0.2496" stop-color="#E2ECFF"/>
<stop offset="0.4788" stop-color="#D0E1FE"/>
<stop offset="0.7214" stop-color="#C5DAFE"/>
<stop offset="1" stop-color="#C2D8FE"/>
</linearGradient>
<linearGradient id="paint20_linear" x1="157.88" y1="92.8787" x2="182.603" y2="75.2713" gradientUnits="userSpaceOnUse">
<stop stop-color="white"/>
<stop offset="0.0298241" stop-color="#FBFCFF"/>
<stop offset="0.2496" stop-color="#E2ECFF"/>
<stop offset="0.4788" stop-color="#D0E1FE"/>
<stop offset="0.7214" stop-color="#C5DAFE"/>
<stop offset="1" stop-color="#C2D8FE"/>
</linearGradient>
<linearGradient id="paint21_linear" x1="93.2439" y1="108.318" x2="144.221" y2="108.318" gradientUnits="userSpaceOnUse">
<stop offset="0.1499" stop-color="#FF9800"/>
<stop offset="1" stop-color="#FFC107"/>
</linearGradient>
<linearGradient id="paint22_linear" x1="133.852" y1="131.25" x2="135.891" y2="131.25" gradientUnits="userSpaceOnUse">
<stop offset="0.1499" stop-color="#FF9800"/>
<stop offset="1" stop-color="#FFC107"/>
</linearGradient>
<linearGradient id="paint23_linear" x1="137.11" y1="107.008" x2="77.3795" y2="111.659" gradientUnits="userSpaceOnUse">
<stop stop-color="#C2D8FE"/>
<stop offset="0.2786" stop-color="#C5DAFE"/>
<stop offset="0.5212" stop-color="#D0E1FE"/>
<stop offset="0.7504" stop-color="#E2ECFF"/>
<stop offset="0.9702" stop-color="#FBFCFF"/>
<stop offset="1" stop-color="white"/>
</linearGradient>
</defs>
</svg>
