<svg width="268" height="268" viewBox="0 0 268 268" fill="none" xmlns="http://www.w3.org/2000/svg">
<rect width="134" height="134" rx="9" fill="#FFF0DA"/>
<rect x="134" y="134" width="134" height="134" rx="9" fill="#FFF0DA"/>
<path d="M208.581 227.337C208.652 227.342 208.723 227.347 208.795 227.347H225.129C226.048 227.346 226.928 226.98 227.578 226.33C228.227 225.679 228.593 224.798 228.594 223.878V185.963C228.593 185.043 228.227 184.161 227.578 183.511C226.928 182.86 226.048 182.494 225.129 182.493H208.795C208.723 182.493 208.652 182.5 208.58 182.504V177.978L176.703 182.238V227.629L208.58 232L208.581 227.337ZM208.581 211.284H213.864V213.267H208.581V211.284ZM208.581 211.036V209.014H213.864V211.036L208.581 211.036ZM208.581 208.768V206.449H213.864V208.766L208.581 208.768ZM208.581 206.204V203.608H213.864V206.204H208.581ZM208.581 203.398V200.927H213.864V203.398L208.581 203.398ZM208.581 200.715V198.241H213.864V200.711L208.581 200.715ZM208.795 184.478H225.129C225.523 184.478 225.9 184.635 226.179 184.914C226.457 185.192 226.614 185.57 226.614 185.964V223.876C226.614 224.27 226.457 224.648 226.179 224.927C225.9 225.205 225.523 225.362 225.129 225.363H208.795C208.723 225.361 208.651 225.353 208.58 225.34V213.477H226.11V197.785H226.099V195.349H208.581V184.498C208.652 184.485 208.723 184.478 208.795 184.476L208.795 184.478ZM225.863 198.241V213.226H223.55V198.966H221.964V213.228H220.643V200.431H219.057V213.226H217.893V201.878H216.307V213.228H214.079V198.241H225.864H225.863ZM220.037 198.03V195.561H225.888V197.785H225.863V198.033L220.037 198.03ZM219.825 198.03H213.973V195.561H219.824V198.031L219.825 198.03ZM184.757 207.623C185.379 207.632 185.997 207.528 186.581 207.316L186.914 209.154C186.124 209.46 185.276 209.589 184.43 209.533C181.181 209.447 179.548 207.252 179.548 204.405C179.548 200.994 181.786 199.037 184.641 198.961C185.457 198.91 186.274 199.046 187.029 199.36L186.58 201.231C185.999 200.984 185.372 200.863 184.741 200.878C183.035 200.907 181.729 202.023 181.729 204.273C181.73 206.297 182.84 207.591 184.757 207.623ZM190.843 209.706C189.853 209.691 188.879 209.447 187.997 208.995L188.452 207.05C189.228 207.476 190.093 207.714 190.977 207.745C192.041 207.764 192.608 207.314 192.608 206.618C192.608 205.953 192.119 205.571 190.886 205.107C189.207 204.492 188.127 203.53 188.127 202.013C188.127 200.232 189.55 198.831 191.95 198.767C192.861 198.726 193.77 198.888 194.611 199.241L194.083 201.214C193.405 200.888 192.66 200.725 191.908 200.74C190.907 200.757 190.423 201.235 190.423 201.783C190.423 202.457 190.995 202.749 192.321 203.262C194.161 203.956 195.039 204.947 195.039 206.469C195.038 208.28 193.674 209.781 190.843 209.706ZM202.195 209.842L199.24 209.766L195.763 198.844L198.443 198.776L199.782 203.41C200.163 204.721 200.51 205.987 200.774 207.371H200.825C201.107 206.04 201.458 204.723 201.843 203.45L203.296 198.65L206.084 198.579L202.195 209.842Z" fill="#FFBB57"/>
<path d="M187.413 53.5925V57.5405L206.456 71.5512L225.499 57.5681V53.593L187.413 53.5925Z" fill="#8B8BA1"/>
<path d="M206.456 75.8503L187.413 61.8358V80.1724H225.499V61.8672L206.456 75.8503Z" fill="#8B8BA1"/>
<path d="M234.702 39.3195L233.836 37.8202L212.527 50.1253H228.961V53.8264L231.159 52.5569C232.26 51.921 233.226 51.0741 234 50.0646C234.774 49.055 235.341 47.9026 235.67 46.6733C235.999 45.4439 236.083 44.1617 235.917 42.8999C235.751 41.6381 235.338 40.4214 234.702 39.3195Z" fill="#8B8BA1"/>
<path d="M232.889 55.56L228.961 57.8284V63.0171L229.845 62.5066C230.948 61.8735 231.915 61.0275 232.689 60.0175C233.464 59.0075 234.03 57.8537 234.356 56.6229C234.557 55.8702 234.668 55.096 234.686 54.3168C234.122 54.7799 233.521 55.1957 232.889 55.56Z" fill="#8B8BA1"/>
<path d="M182.22 66.0185L181.337 65.508C180.685 65.1321 180.067 64.7015 179.488 64.2209C179.496 65.0469 179.608 65.8686 179.822 66.6663C180.441 69.0042 181.915 71.0238 183.952 72.324V67.0173L182.22 66.0185Z" fill="#8B8BA1"/>
<path d="M179.075 37.8202L178.21 39.3195C177.573 40.4215 177.16 41.6383 176.994 42.9003C176.827 44.1623 176.911 45.4448 177.24 46.6744C177.569 47.904 178.137 49.0566 178.911 50.0663C179.685 51.0761 180.651 51.9231 181.752 52.559L183.95 53.8285V50.1274H200.385L179.075 37.8202Z" fill="#8B8BA1"/>
<path d="M180.022 55.56C179.39 55.195 178.789 54.7787 178.225 54.3151C178.243 55.0943 178.354 55.8685 178.555 56.6212C178.881 57.8518 179.447 59.0055 180.221 60.0154C180.995 61.0254 181.962 61.8715 183.065 62.5049L183.949 63.0154V57.83L180.022 55.56Z" fill="#8B8BA1"/>
<path d="M231.575 65.5081L230.691 66.0186L228.961 67.0174V72.3245C230.998 71.0242 232.472 69.0047 233.09 66.6667C233.305 65.8691 233.417 65.0474 233.425 64.2214C232.845 64.7018 232.227 65.1322 231.575 65.5081Z" fill="#8B8BA1"/>
<path d="M84.2663 55.2341C84.5569 55.2341 84.8356 55.1185 85.0411 54.9128C85.2466 54.7071 85.362 54.428 85.362 54.1371V42.2065C85.361 41.3339 85.0144 40.4974 84.3982 39.8804C83.782 39.2634 82.9465 38.9163 82.0751 38.9153H42.1942C41.3227 38.9163 40.4873 39.2634 39.8711 39.8804C39.2548 40.4974 38.9082 41.3339 38.9072 42.2065V91.7935C38.9082 92.666 39.2548 93.5026 39.8711 94.1196C40.4873 94.7366 41.3227 95.0837 42.1942 95.0847H82.0751C82.9465 95.0837 83.782 94.7366 84.3982 94.1196C85.0144 93.5026 85.361 92.666 85.362 91.7935V83.7112C85.362 83.4202 85.2466 83.1412 85.0411 82.9354C84.8356 82.7297 84.5569 82.6141 84.2663 82.6141C83.9758 82.6141 83.6971 82.7297 83.4916 82.9354C83.2861 83.1412 83.1707 83.4202 83.1707 83.7112V91.7935C83.1703 92.0843 83.0548 92.3631 82.8494 92.5688C82.644 92.7745 82.3655 92.8902 82.0751 92.8905H42.1942C41.9037 92.8902 41.6252 92.7745 41.4198 92.5688C41.2144 92.3631 41.0989 92.0843 41.0985 91.7935V42.2065C41.0989 41.9157 41.2144 41.6368 41.4198 41.4312C41.6252 41.2255 41.9037 41.1098 42.1942 41.1094H82.0751C82.3655 41.1098 82.644 41.2255 82.8494 41.4312C83.0548 41.6368 83.1703 41.9157 83.1707 42.2065V54.1371C83.1707 54.2811 83.199 54.4238 83.2541 54.5569C83.3092 54.69 83.3899 54.8109 83.4916 54.9128C83.5933 55.0147 83.7141 55.0955 83.8471 55.1506C83.98 55.2058 84.1225 55.2341 84.2663 55.2341Z" fill="#FFBB57"/>
<path d="M62.1346 44.8394C60.1162 44.8384 58.144 45.4444 56.4737 46.5789C54.8033 47.7134 53.5118 49.3242 52.7665 51.2024C52.0212 53.0806 51.8564 55.1396 52.2937 57.1127C52.7309 59.0857 53.7499 60.8818 55.2186 62.2681C55.255 62.3076 55.2944 62.3443 55.3363 62.3779C57.1917 64.0807 59.6171 65.0252 62.1339 65.0252C64.6508 65.0252 67.0762 64.0807 68.9316 62.3779C68.9735 62.3443 69.0128 62.3076 69.0493 62.2681C70.5179 60.8819 71.5369 59.086 71.9741 57.113C72.4114 55.1401 72.2468 53.0812 71.5016 51.203C70.7565 49.3249 69.4652 47.7141 67.7951 46.5795C66.1249 45.4449 64.1529 44.8386 62.1346 44.8394ZM62.1346 62.8313C60.413 62.8329 58.7387 62.2675 57.3697 61.2222C57.8476 60.3785 58.5404 59.6768 59.3775 59.1886C60.2146 58.7005 61.1659 58.4433 62.1346 58.4433C63.1033 58.4433 64.0547 58.7005 64.8918 59.1886C65.7288 59.6768 66.4216 60.3785 66.8996 61.2222C65.5306 62.2675 63.8563 62.8329 62.1346 62.8313ZM60.382 54.4944V53.7802C60.3782 53.5473 60.4207 53.316 60.5071 53.0997C60.5934 52.8834 60.7219 52.6865 60.8851 52.5204C61.0482 52.3543 61.2428 52.2224 61.4573 52.1324C61.6719 52.0424 61.9022 51.996 62.1349 51.996C62.3675 51.996 62.5978 52.0424 62.8124 52.1324C63.027 52.2224 63.2215 52.3543 63.3847 52.5204C63.5478 52.6865 63.6763 52.8834 63.7627 53.0997C63.8491 53.316 63.8916 53.5473 63.8878 53.7802V54.4944C63.8916 54.7273 63.8491 54.9587 63.7627 55.175C63.6763 55.3913 63.5478 55.5882 63.3847 55.7543C63.2215 55.9203 63.027 56.0522 62.8124 56.1423C62.5978 56.2323 62.3675 56.2787 62.1349 56.2787C61.9022 56.2787 61.6719 56.2323 61.4573 56.1423C61.2428 56.0522 61.0482 55.9203 60.8851 55.7543C60.7219 55.5882 60.5934 55.3913 60.5071 55.175C60.4207 54.9587 60.3782 54.7273 60.382 54.4944ZM68.483 59.6158C67.6835 58.4262 66.5646 57.487 65.2552 56.9063C65.7905 56.2159 66.0806 55.3665 66.0795 54.4925V53.7802C66.0852 53.258 65.9874 52.7397 65.7918 52.2556C65.5961 51.7714 65.3065 51.3309 64.9397 50.9596C64.5729 50.5882 64.1361 50.2934 63.6548 50.0922C63.1734 49.891 62.657 49.7874 62.1353 49.7874C61.6137 49.7874 61.0973 49.891 60.6159 50.0922C60.1345 50.2934 59.6978 50.5882 59.331 50.9596C58.9642 51.3309 58.6746 51.7714 58.4789 52.2556C58.2833 52.7397 58.1855 53.258 58.1912 53.7802V54.4944C58.1901 55.3684 58.4802 56.2178 59.0155 56.9082C57.7061 57.4889 56.5872 58.4281 55.7877 59.6177C54.9212 58.4416 54.3976 57.0477 54.2752 55.5914C54.1528 54.135 54.4364 52.6731 55.0944 51.3685C55.7523 50.0639 56.7589 48.9677 58.002 48.2018C59.2452 47.4359 60.6762 47.0304 62.1358 47.0304C63.5954 47.0304 65.0265 47.4359 66.2696 48.2018C67.5128 48.9677 68.5193 50.0639 69.1773 51.3685C69.8352 52.6731 70.1188 54.135 69.9964 55.5914C69.874 57.0477 69.3504 58.4416 68.484 59.6177L68.483 59.6158Z" fill="#FFBB57"/>
<path d="M68.051 86.9664H62.1346C61.844 86.9664 61.5653 87.082 61.3598 87.2878C61.1544 87.4935 61.0389 87.7725 61.0389 88.0635C61.0389 88.3545 61.1544 88.6335 61.3598 88.8392C61.5653 89.045 61.844 89.1606 62.1346 89.1606H68.051C68.3416 89.1606 68.6203 89.045 68.8257 88.8392C69.0312 88.6335 69.1466 88.3545 69.1466 88.0635C69.1466 87.7725 69.0312 87.4935 68.8257 87.2878C68.6203 87.082 68.3416 86.9664 68.051 86.9664Z" fill="#FFBB57"/>
<path d="M68.051 80.8232H52.4932C52.2026 80.8232 51.9239 80.9388 51.7184 81.1446C51.513 81.3503 51.3975 81.6294 51.3975 81.9203C51.3975 82.2113 51.513 82.4903 51.7184 82.6961C51.9239 82.9018 52.2026 83.0174 52.4932 83.0174H68.051C68.3416 83.0174 68.6203 82.9018 68.8258 82.6961C69.0312 82.4903 69.1467 82.2113 69.1467 81.9203C69.1467 81.6294 69.0312 81.3503 68.8258 81.1446C68.6203 80.9388 68.3416 80.8232 68.051 80.8232Z" fill="#FFBB57"/>
<path d="M68.051 74.6795H52.4932C52.2026 74.6795 51.9239 74.7951 51.7184 75.0008C51.513 75.2066 51.3975 75.4856 51.3975 75.7766C51.3975 76.0675 51.513 76.3466 51.7184 76.5523C51.9239 76.7581 52.2026 76.8736 52.4932 76.8736H68.051C68.3416 76.8736 68.6203 76.7581 68.8258 76.5523C69.0312 76.3466 69.1467 76.0675 69.1467 75.7766C69.1467 75.4856 69.0312 75.2066 68.8258 75.0008C68.6203 74.7951 68.3416 74.6795 68.051 74.6795Z" fill="#FFBB57"/>
<path d="M48.5884 68.8572C48.4093 68.6779 48.1737 68.5665 47.9216 68.5417C47.6696 68.5169 47.4168 68.5804 47.2063 68.7213C46.9958 68.8622 46.8406 69.0719 46.7671 69.3145C46.6936 69.5572 46.7064 69.8178 46.8034 70.0521C46.9003 70.2864 47.0753 70.4797 47.2986 70.5992C47.522 70.7188 47.7798 70.7571 48.0281 70.7077C48.2765 70.6582 48.5001 70.5241 48.6608 70.3281C48.8214 70.1322 48.9093 69.8865 48.9094 69.6329C48.9084 69.3421 48.7931 69.0634 48.5884 68.8572Z" fill="#FFBB57"/>
<path d="M48.5884 75.0008C48.4093 74.8216 48.1737 74.7101 47.9216 74.6854C47.6696 74.6606 47.4168 74.7241 47.2063 74.865C46.9958 75.0059 46.8406 75.2155 46.7671 75.4582C46.6936 75.7009 46.7064 75.9615 46.8034 76.1958C46.9003 76.43 47.0753 76.6234 47.2986 76.7429C47.522 76.8625 47.7798 76.9008 48.0281 76.8513C48.2765 76.8019 48.5001 76.6678 48.6608 76.4718C48.8214 76.2758 48.9093 76.0301 48.9094 75.7766C48.9082 75.4858 48.793 75.2072 48.5884 75.0008Z" fill="#FFBB57"/>
<path d="M48.5884 81.1446C48.4093 80.9654 48.1737 80.8539 47.9216 80.8291C47.6696 80.8043 47.4168 80.8678 47.2063 81.0087C46.9958 81.1497 46.8406 81.3593 46.7671 81.6019C46.6936 81.8446 46.7064 82.1053 46.8034 82.3395C46.9003 82.5738 47.0753 82.7671 47.2986 82.8867C47.522 83.0062 47.7798 83.0445 48.0281 82.9951C48.2765 82.9456 48.5001 82.8115 48.6608 82.6155C48.8214 82.4196 48.9093 82.1739 48.9094 81.9203C48.9082 81.6296 48.793 81.351 48.5884 81.1446Z" fill="#FFBB57"/>
<path d="M68.051 68.5358H52.4932C52.2026 68.5358 51.9239 68.6513 51.7184 68.8571C51.513 69.0628 51.3975 69.3419 51.3975 69.6328C51.3975 69.9238 51.513 70.2028 51.7184 70.4086C51.9239 70.6143 52.2026 70.7299 52.4932 70.7299H68.051C68.3416 70.7299 68.6203 70.6143 68.8258 70.4086C69.0312 70.2028 69.1467 69.9238 69.1467 69.6328C69.1467 69.3419 69.0312 69.0628 68.8258 68.8571C68.6203 68.6513 68.3416 68.5358 68.051 68.5358Z" fill="#FFBB57"/>
<path d="M92.7025 53.2123C92.1792 52.9096 91.6014 52.7131 91.0022 52.6341C90.403 52.555 89.7942 52.5949 89.2104 52.7515C88.6267 52.9081 88.0794 53.1783 87.5999 53.5467C87.1205 53.9151 86.7182 54.3745 86.416 54.8986L72.6283 78.8103C72.5523 78.941 72.504 79.0861 72.4865 79.2363L71.5166 87.9419C71.493 88.1539 71.5315 88.3681 71.6276 88.5585C71.7237 88.7489 71.8731 88.9071 72.0576 89.0137C72.242 89.1204 72.4535 89.1709 72.6662 89.1591C72.8789 89.1473 73.0835 89.0736 73.2551 88.9472L80.2978 83.7533C80.4196 83.6637 80.5214 83.5497 80.597 83.4187L94.3847 59.507C94.9938 58.4485 95.1588 57.1914 94.8434 56.0113C94.528 54.8313 93.7581 53.8247 92.7025 53.2123ZM73.9745 85.6933L74.4812 81.1498L77.6523 82.9828L73.9745 85.6933ZM79.2499 81.3713L75.0748 78.9575L86.1391 59.7687L90.3141 62.1824L79.2499 81.3713ZM92.4898 58.4094L91.4098 60.2822L87.2347 57.8684L88.3147 55.9957C88.6374 55.4473 89.1634 55.0487 89.7781 54.8867C90.3928 54.7247 91.0465 54.8124 91.597 55.1306C92.1474 55.4489 92.5501 55.972 92.7173 56.586C92.8845 57.2001 92.8028 57.8554 92.4898 58.4094Z" fill="#FFBB57"/>
<path d="M51.8241 174.246C48.5244 174.246 45.3598 175.559 43.0265 177.895C40.6933 180.232 39.3824 183.4 39.3824 186.704V195.84C39.3847 197.381 39.9969 198.858 41.0849 199.947C42.1729 201.037 43.6479 201.65 45.1865 201.652H46.0158V199.993H45.1865C44.087 199.991 43.033 199.553 42.2556 198.775C41.4781 197.997 41.0408 196.941 41.0394 195.84V186.704C41.0394 183.841 42.1754 181.095 44.1976 179.07C46.2198 177.045 48.9624 175.908 51.8222 175.908C54.682 175.908 57.4246 177.045 59.4468 179.07C61.469 181.095 62.605 183.841 62.605 186.704V195.84C62.6037 196.941 62.1663 197.997 61.3889 198.775C60.6114 199.553 59.5574 199.991 58.4579 199.993H57.6303V201.654H58.4597C59.9983 201.652 61.4732 201.039 62.5612 199.949C63.6492 198.86 64.2614 197.383 64.2637 195.842V186.704C64.2637 183.401 62.9532 180.232 60.6204 177.896C58.2876 175.56 55.1235 174.247 51.8241 174.246V174.246Z" fill="#8B8BA1"/>
<path d="M42.0708 213.388L42.677 212.432L41.2758 211.542L40.6714 212.499C39.7757 213.913 39.3292 215.565 39.3906 217.238C39.452 218.911 40.0185 220.526 41.0153 221.87V224.078H42.6744V221.586C42.6745 221.397 42.6103 221.214 42.4925 221.067C41.632 219.991 41.1288 218.672 41.0532 217.295C40.9776 215.919 41.3333 214.553 42.0708 213.388Z" fill="#8B8BA1"/>
<path d="M80.8551 174.246H70.0725C68.9729 174.248 67.9188 174.686 67.1413 175.464C66.3637 176.243 65.9263 177.298 65.925 178.399V186.704C65.9263 187.805 66.3637 188.861 67.1411 189.639C67.9186 190.418 68.9726 190.856 70.072 190.857H71.729V194.178C71.7289 194.342 71.7774 194.503 71.8685 194.64C71.9596 194.776 72.0891 194.883 72.2406 194.946C72.3412 194.988 72.4493 195.009 72.5583 195.009C72.7783 195.009 72.9892 194.921 73.1447 194.766L77.0489 190.856H80.8529C81.9524 190.855 83.0064 190.417 83.7839 189.639C84.5613 188.86 84.9987 187.805 85 186.704V178.399C84.9987 177.298 84.5616 176.243 83.7846 175.465C83.0077 174.687 81.9542 174.248 80.8551 174.246V174.246ZM83.3435 186.704C83.3435 187.032 83.2791 187.356 83.1541 187.658C83.029 187.96 82.8457 188.235 82.6147 188.466C82.3836 188.698 82.1093 188.881 81.8074 189.006C81.5055 189.132 81.1819 189.196 80.8551 189.196H76.7076C76.4876 189.196 76.2767 189.284 76.1211 189.439L73.3898 192.174V190.026C73.3898 189.806 73.3024 189.595 73.1469 189.439C72.9914 189.284 72.7804 189.196 72.5605 189.196H70.072C69.4121 189.196 68.7791 188.934 68.3125 188.466C67.8458 187.999 67.5836 187.365 67.5836 186.704V178.399C67.5836 177.738 67.8458 177.104 68.3125 176.637C68.7791 176.17 69.4121 175.907 70.072 175.907H80.8547C81.5146 175.907 82.1476 176.17 82.6142 176.637C83.0809 177.104 83.3431 177.738 83.3431 178.399L83.3435 186.704Z" fill="#8B8BA1"/>
<path d="M75.6422 178.626H70.0532V179.918H75.6422V178.626Z" fill="#8B8BA1"/>
<path d="M80.8013 178.626H77.7918V179.918H80.8013V178.626Z" fill="#8B8BA1"/>
<path d="M80.8014 181.639H70.0532V183.361H80.8014V181.639Z" fill="#8B8BA1"/>
<path d="M75.6422 185.084H70.0532V186.806H75.6422V185.084Z" fill="#8B8BA1"/>
<path d="M62.9786 212.498L62.3724 211.542L60.9713 212.432L61.5775 213.389C62.3155 214.553 62.6719 215.918 62.5968 217.295C62.5217 218.672 62.019 219.99 61.1587 221.067C61.041 221.214 60.9768 221.397 60.9769 221.586V224.078H62.6377V221.869C63.6341 220.525 64.2001 218.91 64.2609 217.237C64.3218 215.564 63.8747 213.912 62.9786 212.498Z" fill="#8B8BA1"/>
<path d="M84.1724 202.485H76.7076C75.2096 202.487 73.7702 203.068 72.6902 204.107C71.6103 205.146 70.9735 206.564 70.913 208.062L68.413 212.568V209.129C68.4107 207.588 67.7985 206.111 66.7105 205.022C65.6225 203.932 64.1476 203.319 62.6089 203.317H59.5753L59.553 203.299L59.5379 203.317H57.6303C57.4125 203.317 57.1967 203.274 56.9954 203.191C56.7941 203.107 56.6111 202.985 56.4571 202.831C56.303 202.676 56.1808 202.493 56.0974 202.292C56.0141 202.09 55.9712 201.874 55.9713 201.656V199.701C57.2305 198.973 58.2765 197.927 59.0044 196.666C59.7322 195.406 60.1164 193.976 60.1183 192.52V185.874C60.1171 184.498 59.7752 183.143 59.1231 181.932C59.0225 181.746 58.8549 181.606 58.6546 181.54C58.4543 181.473 58.2362 181.486 58.0448 181.575L44.0059 188.189C43.8635 188.256 43.7432 188.363 43.6589 188.496C43.5746 188.629 43.5299 188.783 43.53 188.941V192.518C43.5319 193.974 43.9161 195.404 44.644 196.664C45.3718 197.924 46.4178 198.971 47.6771 199.699V201.654C47.6771 201.872 47.6342 202.088 47.5509 202.289C47.4675 202.491 47.3453 202.674 47.1913 202.828C47.0372 202.983 46.8543 203.105 46.6529 203.189C46.4516 203.272 46.2359 203.315 46.018 203.315H41.0394C39.5004 203.317 38.0251 203.93 36.9371 205.02C35.849 206.11 35.2371 207.588 35.2354 209.129V224.078H36.8944V209.129C36.8958 208.028 37.3332 206.972 38.1106 206.194C38.888 205.415 39.9421 204.978 41.0415 204.976H43.6809L51.15 215.426C51.2257 215.532 51.3252 215.618 51.4404 215.679C51.5556 215.739 51.6834 215.771 51.8134 215.773H51.8242C51.9529 215.773 52.0799 215.743 52.195 215.685C52.3101 215.627 52.4103 215.544 52.4875 215.44L60.3673 204.976H62.6068C63.7062 204.977 64.7603 205.415 65.5377 206.193C66.3151 206.972 66.7525 208.027 66.7539 209.128V215.772C66.754 215.956 66.8151 216.135 66.9275 216.28C67.04 216.426 67.1975 216.53 67.3753 216.576C67.5531 216.622 67.7412 216.608 67.91 216.535C68.0788 216.463 68.2188 216.336 68.3081 216.175L72.2183 209.128H76.9733L68.8863 224.078H70.7733L78.8637 209.128H79.1956C80.7342 209.126 82.2092 208.513 83.2971 207.424C84.3851 206.334 84.9973 204.857 84.9996 203.317C84.9998 203.097 84.9129 202.885 84.7578 202.73C84.6027 202.574 84.3922 202.486 84.1724 202.485ZM45.1886 192.518V189.468L57.9962 183.434C58.3025 184.211 58.4597 185.038 58.4597 185.874V192.518C58.4597 194.28 57.7606 195.97 56.5162 197.216C55.2718 198.462 53.584 199.162 51.8242 199.162C50.0643 199.162 48.3765 198.462 47.1321 197.216C45.8877 195.97 45.1886 194.28 45.1886 192.518ZM51.8418 213.54L49.282 209.959H54.5392L51.8418 213.54ZM55.7924 208.297H48.0902L45.7157 204.975H46.0167C46.8966 204.975 47.7405 204.625 48.3627 204.002C48.9849 203.379 49.3344 202.534 49.3344 201.653V200.441C50.9542 200.951 52.6915 200.951 54.3113 200.441V201.654C54.3113 202.535 54.6608 203.38 55.283 204.003C55.9052 204.626 56.7491 204.976 57.6291 204.976H58.2924L55.7924 208.297ZM79.196 207.467H72.6435C72.8358 206.529 73.3451 205.687 74.0855 205.082C74.8258 204.477 75.7519 204.146 76.7076 204.144H83.2584C83.0663 205.082 82.5573 205.924 81.8173 206.529C81.0773 207.135 80.1515 207.466 79.196 207.467V207.467Z" fill="#8B8BA1"/>
</svg>
